<?xml version="1.0" standalone="no"?>
<!DOCTYPE svg PUBLIC "-//W3C//DTD SVG 1.1//EN" "http://www.w3.org/Graphics/SVG/1.1/DTD/svg11.dtd" >
<svg xmlns="http://www.w3.org/2000/svg">
<metadata></metadata>
<defs>
<font id="StarJediOutlineRegular" horiz-adv-x="0" >
<font-face units-per-em="2048" ascent="1638" descent="-410" />
<missing-glyph horiz-adv-x="950" />
<glyph />
<glyph />
<glyph unicode="&#xd;" />
<glyph unicode=" "  horiz-adv-x="950" />
<glyph unicode="&#x09;" horiz-adv-x="950" />
<glyph unicode="&#xa0;" horiz-adv-x="950" />
<glyph unicode="!" horiz-adv-x="872" d="M162 1444h549l-80 -909h-389zM213 0v385h446v-385h-446zM228 1384l73 -789h271l71 789h-415zM273 60h326v265h-326v-265zM292 1324h279l-49 -677h-182zM325 120v150h216v-150h-216z" />
<glyph unicode="&#x22;" horiz-adv-x="1139" d="M197 813v631h307v-631h-307zM257 873h187v511h-187v-511zM313 933v392h82v-392h-82zM635 813v631h307v-631h-307zM699 875h187v511h-187v-511zM753 941v392h82v-392h-82z" />
<glyph unicode="#" d="M-60 1014v60h180v-60h-180zM-60 1134v190h180v-190h-180zM-60 1384v60h180v-60h-180z" />
<glyph unicode="$" d="M-60 0v60h180v-60h-180zM-60 120v190h180v-190h-180zM-60 370v60h180v-60h-180z" />
<glyph unicode="%" d="M60 1074v310h60v-310h-60z" />
<glyph unicode="&#x26;" d="M-60 1074v310h60v-310h-60z" />
<glyph unicode="'" horiz-adv-x="647" d="M170 813v631h307v-631h-307zM233 875h187v511h-187v-511zM287 921v410h86v-410h-86z" />
<glyph unicode="(" horiz-adv-x="758" d="M64 817q0 458 278 932h375q-231 -426 -231 -928.5t231 -925.5h-375q-278 464 -278 922zM131 824q-3 -168 33 -316t84 -278t132 -274h236q-68 132 -98 232t-52 196q-37 160 -46 440q22 302 47 417q47 215 145 447h-232q-252 -444 -249 -864zM188 824q0 396 224 800h128 q-107 -232 -138 -420q-35 -209 -40.5 -362.5t2.5 -249.5t26 -174t44 -168t94 -230h-120q-116 164 -186 494q-30 142 -34 310z" />
<glyph unicode=")" horiz-adv-x="758" d="M64 -105q231 423 231 925.5t-231 928.5h375q278 -474 278 -932t-278 -922h-375zM165 -44h236q84 144 132 274t84 278t33 316q3 420 -249 864h-232q98 -232 131 -384t43 -262t18 -218q-9 -280 -38.5 -408t-59.5 -228t-98 -232zM241 1624h128q224 -404 224 -800 q-7 -286 -108 -580q-44 -128 -112 -224h-120q68 140 94 230t44 168q37 161 30 406q-13 321 -84 558q-28 94 -96 242z" />
<glyph unicode="*" d="M-60 60v310h60v-310h-60z" />
<glyph unicode="+" horiz-adv-x="1456" d="M0 1014v60h1516v-60h-1516zM0 1134v190h1516v-190h-1516zM0 1384v60h1516v-60h-1516z" />
<glyph unicode="," horiz-adv-x="758" d="M61 -233l127 630h435l-236 -630h-326zM122 -190h226l204 544h-326zM168 -152l88 464h234l-164 -464h-158z" />
<glyph unicode="-" horiz-adv-x="758" d="M92 377v360h574v-360h-574zM152 437h454v240h-454v-240zM198 483v148h367v-148h-367z" />
<glyph unicode="." horiz-adv-x="758" d="M156 0v397h446v-397h-446zM216 60h326v277h-326v-277zM272 106v189h221v-189h-221z" />
<glyph unicode="/" horiz-adv-x="758" d="M-123 -25l641 1493h363l-641 -1493h-363zM-24 32h220l592 1376h-224zM45 80l547 1274h122l-549 -1274h-120z" />
<glyph unicode="0" horiz-adv-x="1516" d="M47 692.5q0 190.5 46.5 327t136.5 238.5q188 210 530 210q329 0 518 -204q190 -203 190 -543q0 -225 -81 -393.5t-241.5 -260.5t-385 -92t-386 93.5t-244.5 263.5t-83 360.5zM115 698q0 -175 75 -331t222 -242t351 -86t350.5 85t220 239.5t73.5 335t-44 306.5t-128 217 q-174 188 -472 188q-311 0 -482 -194q-166 -188 -166 -518zM178 695q0 160 37.5 275t110.5 200q154 177 436 177q268 0 424 -171q157 -172 157 -455q0 -392 -266 -551q-132 -78 -316 -78t-316 79t-199.5 221.5t-67.5 302.5zM507 745q0 -153 5 -233t28 -146q52 -149 224 -149 q114 0 170 68t68.5 167t12.5 272.5t-12.5 272.5t-68 163t-173.5 64t-175 -64.5t-68 -163t-11 -251.5zM556 744q0 138 9 226q21 206 195 206q168 0 190 -205q9 -89 9 -245.5t-9.5 -245.5t-54 -150t-126.5 -61t-125 37t-61.5 96.5t-22.5 131.5t-4 210zM623 745.5 q0 -118.5 2.5 -181.5t14.5 -114q29 -117 120 -117q117 0 130 183q6 78 6 213t-6 213q-12 177 -130 177q-117 0 -131 -177q-6 -78 -6 -196.5z" />
<glyph unicode="1" horiz-adv-x="1065" d="M-27 1081l539 363h440v-1444h-516v938l-317 -233zM40 1057l106 -270l350 257v-984h396v1324h-368zM100 1036l436 292h300v-1200h-284v1012l-386 -278z" />
<glyph unicode="2" horiz-adv-x="1212" d="M41 0v406q236 118 418 235q91 63 143.5 124t52.5 153.5t-77 141t-189 48.5q-177 0 -319 -61v376q244 45 452 45q275 0 462 -108t187 -365q0 -217 -188 -389q-83 -75 -171 -129t-226 -125v-4h585v-348h-1130zM101 60h1010v228h-727q330 176 411 233t151 126t117 151.5 t48 196.5q-19 225 -179 317t-410 96q-113 0 -392 -33v-250q83 38 259 43q143 -6 228 -65t98 -196q-11 -107 -69 -173t-201 -161t-344 -198v-315zM154 108v240q172 90 360 220q104 66 174 137t74 203q-4 306 -374 310q-174 -6 -206 -28v144q230 26 342 26q232 -10 369 -90 t167 -274q-4 -108 -46 -181t-105 -134t-136 -115t-441 -276v-46l727 -1v-135h-905z" />
<glyph unicode="3" horiz-adv-x="1212" d="M43 35v336q175 -60 322 -60t207.5 27.5t60.5 101.5q0 142 -234 142q-63 0 -176 -15v316q78 -4 131.5 -4t109.5 6t102 33t46 94.5t-61 101t-148 33.5q-163 0 -346 -57v323q174 55 471 55q241 0 418 -92q92 -47 147.5 -126t55.5 -187q0 -246 -275 -326v-4q295 -77 295 -334 q0 -148 -91.5 -243t-234.5 -138t-304 -43q-283 0 -496 60zM103 85q49 -17 183.5 -34.5t276.5 -15t266.5 43.5t196.5 116t83 204q-5 224 -295 327v18q270 100 275 318q-3 94 -52 162t-129 105q-171 79 -380 79q-142 4 -251 -11t-159 -37v-192q38 14 122 27.5t161 11.5 q127 1 200.5 -53.5t71 -146t-66.5 -132.5t-128 -47q-150 -14 -195 -10v-183q54 9 116 7q121 0 203 -48.5t91 -153.5q-5 -104 -85 -144t-200 -47q-92 1 -192 24.5t-113 25.5v-214zM147 121v127q175 -44 264 -34q132 -1 229.5 48.5t93 177t-102 188t-232.5 59.5q-61 -3 -77 -4 v96q61 -6 150 4.5t166.5 60.5t85 159.5t-78.5 180.5t-245 71q-141 -6 -234 -31v105q33 14 129 27.5t207.5 12t211 -23t169.5 -54.5q152 -72 156 -229q-4 -196 -255 -307v-35q258 -128 274 -320q-8 -114 -70 -172q-132 -125 -448 -147q-188 -3 -393 40z" />
<glyph unicode="4" horiz-adv-x="1442" d="M33 276v308l777 860h347l1 -860h251v-308h-252v-276h-347v276h-777zM92 336h780v-276h228v276h248v184h-248v864h-264l-744 -836v-212zM150 379v147l703 806h199v-855h247v-97h-248v-270h-129v269h-772zM288 533h580v656zM409 580l409 476v-476h-409zM512 624h254v285z " />
<glyph unicode="5" horiz-adv-x="1212" d="M76 37v330q183 -43 301 -43q256 0 256 163q0 100 -83.5 138.5t-200 38.5t-255.5 -33v813h1010v-336h-539v-223q55 6 167.5 6t214.5 -54t162 -155t60 -233q0 -176 -93 -281.5t-239 -149t-340.5 -43.5t-420.5 62zM136 92q21 -9 94 -26q107 -26 286 -32q162 4 297 47 t213 122t82 247q0 118 -52 202t-139 133t-192.5 51.5t-218.5 -12.5v344h538v216h-890v-684q86 20 196 24q164 -4 250 -57t92 -179q-10 -214 -314 -224q-124 -4 -242 24v-196zM188 133v99q68 -12 192 -11q348 3 359 267q-3 154 -98 216t-292 63q-102 -1 -145 -14v580h789 v-121h-542v-445q167 26 274 20q94 2 165.5 -46t113.5 -115.5t50 -175.5q-6 -148 -68 -213.5t-190 -105t-233 -43.5t-179 1t-196 44z" />
<glyph unicode="6" horiz-adv-x="1401" d="M33 710.5q0 227.5 98 403.5t272 265t413 89t421 -38v-334q-25 6 -72.5 18t-82.5 18q-89 15 -215 15t-222 -68t-96 -221q107 88 321 88q130 0 244.5 -54.5t184 -159.5t69.5 -261.5t-89.5 -271t-234 -169.5t-329.5 -55t-346 91t-248.5 254t-87.5 390.5zM93 690 q8 -198 88.5 -343t228 -224.5t325.5 -87.5q149 5 280 57q281 113 294 390q-5 130 -68 220q-132 190 -370 182q-109 -3 -177 -21t-150 -63l-55 -2q-8 234 113 318q151 107 392 90q81 -5 183 -34v210q-125 31 -355 27.5t-386 -81.5t-247 -240.5t-96 -397.5zM142 690 q8 222 92 372q160 286 568 298q252 0 324 -22v-102q-108 24 -244 20q-178 -4 -322 -102t-118 -410h86q112 60 174 71t168 19q116 -2 190 -40t135 -117t56 -204t-70 -203t-186 -130t-261 -58q-158 4 -289 78t-211 207t-92 323zM475 481.5q0 -117.5 64 -188.5t177.5 -71 t182.5 75.5t69 190t-67.5 183t-184.5 68.5t-179 -70t-62 -187.5zM515 480.5q0 100.5 52 161.5t151 61t155 -59.5t56 -158t-57.5 -163t-153 -64.5t-149.5 61t-54 161.5zM561 481.5q0 -81.5 41 -130.5t114 -49t117 52t44 132t-43 127t-118.5 47t-115 -48.5t-39.5 -130z" />
<glyph unicode="7" horiz-adv-x="1212" d="M25 1047v397h1163v-397l-514 -1047h-615l609 1047h-643zM85 1107l683 1l-606 -1048h485l481 1005v319h-1043v-277zM138 1160v170h942v-240l-466 -972h-352l600 1042h-724z" />
<glyph unicode="8" horiz-adv-x="1401" d="M25 385q0 282 286 350v4q-89 30 -147 71q-115 84 -115 263q0 212 205 311q176 84 444 84q386 0 552 -162q91 -88 91 -227t-65.5 -217t-192.5 -125v-2q132 -33 212.5 -120.5t80.5 -215.5t-59.5 -208t-156.5 -127q-184 -89 -462 -89q-116 -1 -294 39q-379 83 -379 371z M84 386q12 -130 102 -196t235 -109t280 -44t239 27t190 66q190 84 186 256q-4 124 -69 193t-205 153v16q134 74 180 139t58 185q-12 128 -88 196q-142 127 -494 140q-236 -8 -407 -88q-85 -40 -128 -98t-53 -148q2 -100 28 -143q57 -95 218 -185v-16q-248 -78 -272 -344z M152 386q22 252 244 334v32q-159 107 -204 189q-16 29 -22 133q10 70 42 117t108 81q164 73 378 84q336 -17 450 -120q62 -56 82 -164q-10 -106 -45 -162t-189 -154v-30q164 -126 211 -175t53 -165q-6 -50 -42 -107t-110 -93t-164 -62t-246 -30q-264 7 -454 132 q-76 50 -92 160zM465 472q0 -124 55 -203.5t176.5 -79.5t182.5 81.5t61 205t-61 198t-182 74.5q-232 0 -232 -276zM496 1031.5q0 -97.5 53 -161t148 -65t148.5 63.5t53.5 161t-53.5 159.5t-147.5 63.5t-148 -62t-54 -159.5zM509 470q0 222 186 222q97 0 145 -60t48 -159 t-48 -163.5t-145 -64.5t-141.5 63t-44.5 162zM544 1036q0 77 41.5 126.5t113.5 49.5t112.5 -50.5t40.5 -126.5t-40.5 -127.5t-113 -51t-113.5 51.5t-41 128zM553 473q0 -77 35 -126.5t110.5 -49.5t112.5 50t37 128t-37 125t-113 47q-145 0 -145 -174zM577 1036 q0 -59 31.5 -98t87 -39.5t87 39t31.5 98t-31.5 97.5t-86.5 39t-87 -38.5t-32 -97.5z" />
<glyph unicode="9" horiz-adv-x="1401" d="M33 972.5q0 156.5 89.5 271t234 169.5t329.5 55t346 -91t248.5 -254t87.5 -390.5t-98 -403.5t-272 -265t-413 -89t-421 38v334q25 -6 72.5 -18t83.5 -18q88 -15 214 -15t222 68t96 221q-107 -88 -321 -88q-130 0 -244.5 54.5t-184 159.5t-69.5 261.5zM92 961 q5 -130 68 -221q132 -189 370 -181q109 3 177 21t149 68l56 -3q8 -234 -112 -319q-152 -106 -392 -90q-82 6 -184 35v-210q125 -31 355 -27.5t386 81.5t247 240.5t96 397.5q-8 198 -88.5 343t-228 224.5t-325.5 87.5q-149 -5 -280 -58q-281 -112 -294 -389zM150 970 q5 125 70 203t186 130t261 58q158 -4 289 -78t211 -207t92 -323q-8 -222 -92 -372q-160 -286 -568 -298q-252 0 -324 22v102q108 -24 244 -20q178 4 322 102t118 410l-67 1q-116 -52 -185.5 -67.5t-175.5 -23.5q-116 2 -190 40t-135 117t-56 204zM433 955.5 q0 -114.5 67.5 -183t184.5 -68.5t179 70t62 187.5t-64 188.5t-177.5 71t-182.5 -75.5t-69 -190zM472 957.5q0 98.5 57.5 163t153 64.5t149.5 -61t54 -161.5t-52 -161.5t-151 -61t-155 59.5t-56 158zM524 957q0 -80 43 -127t118.5 -47t115 48.5t39.5 130t-41 130.5t-114 49 t-117 -52t-44 -132z" />
<glyph unicode=":" horiz-adv-x="758" d="M156 0v397h446v-397h-446zM156 680v397h446v-397h-446zM216 56h331v277h-331v-277zM216 740h331v277h-331v-277zM272 98v189h221v-189h-221zM275 798v174h214v-174h-214z" />
<glyph unicode=";" horiz-adv-x="1440" d="M10 739q0 174 63.5 307.5t172 222.5t227.5 142t343 62q232 -9 354 -53t246 -160l-284 -316q-72 60 -128 86t-184 34q-124 -16 -185 -51t-105 -95t-52 -180q8 -120 52 -180t105 -95t185 -51q128 8 184 34t128 86l284 -316q-124 -116 -246 -160t-354 -56q-224 12 -339 65.5 t-227 142.5q-240 188 -240 531zM70 739q2 -179 66 -285t162 -190t214 -142t304 -62q223 11 327 47.5t189 116.5l-205 214q-121 -88 -307 -86q-148 20 -220 58t-135 113t-73 215q12 144 72 217t134.5 116t231.5 51q170 2 296 -94l198 224q-68 76 -178 112t-330 49 q-210 -5 -319 -57t-204 -132q-216 -182 -223 -485zM124 738q8 156 70 269t144 183t184 116t296 54q362 -21 428 -112l-128 -150q-86 74 -284 76q-182 -4 -267 -50t-155 -135t-80 -251q2 -154 81 -245t160 -130t249 -65q220 4 300 64l132 -140q-40 -36 -133 -68t-305 -44 q-166 4 -278 59t-199 130t-148 171t-67 268z" />
<glyph unicode="&#x3c;" d="M-1636 -82h1636v-60h-1636v60zM-1636 -202h1636v-190h-1636v190zM-1636 -452h1636v-60h-1636v60z" />
<glyph unicode="=" horiz-adv-x="1456" d="M0 0v60h1516v-60h-1516zM0 120v190h1516v-190h-1516zM0 370v60h1516v-60h-1516z" />
<glyph unicode="&#x3e;" d="M0 -82h1636v-60h-1636v60zM0 -202h1636v-190h-1636v190zM0 -452h1636v-60h-1636v60z" />
<glyph unicode="?" horiz-adv-x="1176" d="M84 1040v353q239 75 446 75q311 0 470 -135q92 -78 92 -197.5t-48.5 -188t-147 -148.5t-142 -132t-43.5 -132h-410q13 240 137 331q50 38 93.5 72t43.5 86t-52 68t-135 16q-160 0 -304 -68zM144 1130q83 35 215.5 39.5t203.5 -27.5t73 -118q-4 -80 -57 -125t-97 -78 q-104 -78 -126 -227h304q-2 48 49 107t145 136t133 131t45 152q-10 104 -83 171q-133 122 -419 117q-222 4 -386 -74v-204zM192 1194v102q151 64 340 64q283 -10 380 -104q58 -56 70 -136q-16 -90 -50.5 -135.5t-118 -110t-128.5 -114t-57 -104.5h-194q34 86 76 120t110 96 t64 152q2 110 -85 157t-229 43q-96 -6 -178 -30zM283 0v385h446v-385h-446zM338 56h335v277h-335v-277zM392 102v189h221v-189h-221z" />
<glyph unicode="@" horiz-adv-x="5657" d="M92 128v128q78 7 69 109l-1 1228q3 89 -68 115v134h418l69 -74v74h402v-44l52 -11v55h314l40 -53l108 71q201 14 231 -27l179 9l70 -74v74h501l69 -74l77 71l50 21q136 12 194 -15l1531 -2l86 -93l2 92h350l169 -206l42 207l399 -1l158 -165v-127q-106 -19 -88 -110 v-1258l88 -91v-128h-420q-45 19 -53 74h-32l-24 -38h-222q-17 -55 -105 -36q13 49 -157 36h-837q0 -55 -156 -50l-90 51l-32 2v-53q-349 -25 -384 50q-17 -55 -105 -55l-103 55l-24 -53h-288l-39 54l-34 -1q-87 -55 -175 -55l-174 55h-872l-69 -55l-175 147 q-120 -39 -139 -128h-646zM109 148h627l35 382v119l-131 5q-8 -416 -217 -376v1408q11 54 69 45l1 94h-384v-92q85 -14 69 -164v-1294l-69 -37v-90zM598 548l17 108l34 20v857l-51 -19v-966zM598 1733q68 -18 68 -73v-984l119 -1l21 -19v-253l35 -18q314 -55 419 255v999 q-9 104 69 94v92h-279v-92q72 10 70 -127v-966q-68 -89 -147.5 -68.5t-95.5 158.5l-2 938q14 76 87 66l1 91h-365v-92zM806 183h52q995 604 2288 536q637 -67 1062 -232t701 -339h47l1 54q-382 219 -763 365t-1033 220q-506 54 -1290 -111l-350 -110l-435 -181l-280 -165 v-37zM1034 220q-51 -69 16 -109h53l-1 35l-50 2l-2 35h1012q91 -93 204.5 -56t127.5 187q-3 144 -126 188t-208 -63h-312v35h36l-1 -18h35q-6 68 -60 58.5t-50.5 -61.5t40.5 -50h332q99 108 190.5 56t89.5 -141q-10 -124 -114 -158.5t-166 60.5h-1046zM1050 621l53 19v893 l-53 -19v-893zM1260 293h925q33 -41 53 18q-15 55 -53 20l-925 -1v-37zM1365 790q86 -114 190 -150q193 -19 332 201v346h-157v-328q-122 -72 -156 18l-1 767q81 129 157 16v-219h157v384l-174 -19q-27 50 -167 34.5t-181 -141.5v-909zM1399 530l122 36l-70 90h-34l-18 -71 v-55zM1730 1205h157l52 -73l36 18v110h-85l-142 163h-18v-218zM1887 731l244 61l1 104h-52l34 218h140l19 -158q-2 -50 -55 -48v-104l315 37v127q-70 0 -70 110l-86 613q1 51 86 59v75h-471v-92q56 7 70 -54l-105 -747q-12 -83 -70 -91v-110zM2132 1260l46 313l40 -313h-86z M2445 129h262q-1 89 19 196l-54 5q-22 -124 -61 -145l-25 17v383l33 21l1 50h-175v-49l35 -24l1 -400h-36v-54zM2550 841h122v36q251 -114 366 110v273l-38 69l-240 185v146q49 57 99 24t40 -170h139v311h-139v-20l-16 2q-10 51 -201 35q-88 -30 -132 -134v-285 q96 -129 279 -218v-163q-92 -102 -157 21v142h-122v-364zM2586 1315l34 -92h35l-35 92h-34zM2671 511l1 -72h70q-18 -291 35 -310q108 -14 156 19v54q-68 -37 -86 0v237h70v72h-70v92l-105 -18v-74h-71zM2899 1478l18 -74l191 -181h17v110q-87 -18 -192 145h-34zM2951 165 l52 -36h297q0 19 -70 73v454h-156q-18 -16 51 -71v-91q-122 54 -174 -38v-291zM3056 202v234q34 32 69 3l-1 -219q-24 -32 -68 -18zM3074 841l348 -19v91q-71 10 -69 89v276q86 -3 95 -73h114v273h-123q13 -77 -86 -72v290q163 16 139 -163h139v292h-557v-92q69 -18 69 -73 v-644q-24 -67 -69 -66v-109zM3297 316q19 -167 149.5 -197.5t186.5 65.5l1027 -1l-19 -35l-20 17h-31l36 -54q76 -1 67 89l-15 20h-1064q-37 -74 -140 -72q-133 40 -140 166q19 142 151 162q85 2 132 -73l381 -2q43 72 6 99.5t-76 -6.5v-38h35l1 20h15l1 -37h-349 q-59 92 -183 68t-151 -191zM3450 311q21 -60 60 -18h941v37h-941q-41 42 -60 -19zM3492 913l121 -112v97q46 -9 70 50l1 75q-122 -36 -175 91h-17v-201zM3631 768q199 -19 366 -84v120q-73 6 -69 77v802q4 61 51 69l1 73h-331v-92q38 1 51 -62v-728q-14 -78 -69 -68v-107z M4017 675q406 -97 715 -292h52v109q-70 0 -70 92v766l175 -821l53 -37l173 858l-2 -1057q-19 -63 -68 -58l1 -89h384v91q-77 -2 -70 128l-1 1317q-2 48 71 54v87h-367l-121 -619l-129 615l-63 4h-245v-91q61 1 70 -55v-674l-98 1q-19 -234 -99 -274h-65v930q1 66 70 74v89 h-366v-91q73 12 70 -92v-837l-70 -18v-110zM4468 1023h88v510h-88v-510zM4538 621l15 180l20 1v-181h-35zM4887 456q-22 -67 70 -126v-128l60 -52l9 106l70 19v73q-127 9 -174 108h-35z" />
<glyph unicode="A" horiz-adv-x="1492" d="M60 0v60h370l92 260h508l92 -260h370v-60h-410l-92 260h-428l-92 -260h-410zM60 120v190h128l332 1006h524l339 -1006h109v-190h-321l-111 264h-588l-90 -264h-322zM60 370v60h12l354 1014h730l324 -1014h12v-60h-60l-326 1014h-630l-354 -1014h-62zM510 510h549 l-267 671zM586 568l200 489l186 -489h-386zM660 612h238l-110 322z" />
<glyph unicode="B" horiz-adv-x="1628" d="M60 0v60h911q26 -1 50 0q160 0 273 22q263 52 263 302v15q0 86 -77 182q-32 39 -92 69t-174 78v8q154 76 222 148q60 63 60 176q0 17 -1 34q-22 158 -129 222.5t-321 67.5h-985v60h985q237 -2 360.5 -82t149.5 -268q1 -16 1 -32q0 -121 -62 -194q-70 -82 -231 -135v-4 q157 -20 259 -119q95 -94 95 -211q0 -171 -87.5 -259t-225.5 -115q-128 -25 -306 -25h-27h-911zM60 120v190h124v824h-124v190h985q194 0 283.5 -52t113.5 -178q1 -16 1 -31q0 -105 -49 -157q-56 -60 -230 -174q151 -88 233.5 -157t105.5 -176v-8q1 -93 -47 -155 q-50 -66 -171 -90.5t-312 -25.5h-913zM60 370v704h60v-704h-60zM486 234h423h14q109 0 179 44q74 47 81 148q-7 98 -78 148q-68 48 -186 48h-10h-423v-388zM490 810h382h12q96 0 164 46q72 49 72 123v11q0 78 -67 118q-72 44 -181 45h-382v-343zM538 287v283h345h15 q90 0 148 -33q62 -36 62 -112t-50 -108q-47 -30 -161 -30h-14h-345zM554 868v232h298q85 0 141 -30q53 -28 53 -80v-6q2 -52 -50 -83t-144 -33h-298zM580 348h320q12 -1 22 -1q119 0 130 81q-8 84 -148 84h-324v-164zM607 928h246q123 0 137 56q-25 64 -137 64h-246v-120z " />
<glyph unicode="C" horiz-adv-x="1484" d="M10 743q0 170 65.5 303.5t181.5 221.5q230 176 587 176h640v-60h-640q-525 -6 -708 -360q-62 -120 -66 -281v-9q0 -221 102 -370q104 -152 280 -226t392 -78h640v-60h-640q-235 0 -425 83.5t-299.5 250.5t-109.5 409zM128 744q15 291 218 440q98 72 222 104t280 40h636 v-192h-452q-150 -2 -239 -13t-167 -41t-144 -96t-78 -266q12 -164 76 -248t155 -112t178 -38t223 -10h448v-192h-640q-196 0 -358 70t-260 206t-98 348zM465 718q11 168 68 225t122 83t144.5 35.5t232.5 12.5h452v-60h-452q-152 0 -225 -9t-130 -30t-101 -73t-51 -184 q5 -128 51 -183t112 -73q117 -32 344 -32h452v-60h-452h-31q-204 0 -343 37q-177 48 -193 311z" />
<glyph unicode="D" horiz-adv-x="1662" d="M60 0v60h828q240 6 343 47t171 104t126 186t64 325q-8 194 -29 251t-54 122t-103 133t-195 114q-115 42 -271 42h-28h-852v60h852q345 0 530 -167q210 -191 210 -555q-21 -390 -212 -558q-187 -164 -524 -164h-28h-828zM60 120v190h122v824h-122v190h852q161 0 279 -38 t181 -99t92.5 -119.5t46 -114t27.5 -232.5q-4 -200 -61 -311t-105.5 -159.5t-134.5 -86.5t-349 -44h-828zM60 370v704h60v-704h-60zM450 292h341q203 0 304 165q44 72 57 258q-4 168 -51 249t-120 126t-192 45h-339v-843zM514 344v730h278q174 0 256 -148q38 -71 42 -217 q-12 -161 -48 -223q-82 -142 -248 -142h-280zM574 404h214q91 3 133.5 38.5t64 76t31.5 186.5q-7 122 -31 174t-67.5 89t-131.5 38h-213v-602z" />
<glyph unicode="E" horiz-adv-x="1360" d="M60 0v60h1300v-60h-1300zM60 120v190h122v824h-122v190h1240v-190h-880v-386h484v-54h-486v-382l942 -2v-190h-1300zM60 370v704h60v-704h-60zM60 1384v60h1240v-60h-1240zM470 370v284h496v134h-496v286h830v-60h-770v-166h496v-252h-496v-166h830v-60h-890z" />
<glyph unicode="F" horiz-adv-x="1300" d="M60 0v60h410v594h496v134h-496v286h830v-60h-770v-166h496v-252h-496v-596h-470zM60 120v190h122v824h-122v190h1240v-190h-880v-386h484v-54h-484v-574h-360zM60 370v704h60v-704h-60zM60 1384v60h1240v-60h-1240z" />
<glyph unicode="G" horiz-adv-x="1484" d="M10 743q0 170 65.5 303.5t181.5 221.5q230 176 587 176h640v-60h-640q-525 -6 -708 -360q-62 -120 -66 -281v-9q0 -221 102 -370q104 -152 280 -226t392 -78h580v602h-332v-292h-60h-31q-203 0 -343 37q-177 48 -193 311q11 168 68 225t122 83t144.5 35.5t232.5 12.5h452 v-60h-452q-152 0 -225 -9t-130 -30t-101 -73t-51 -184q5 -128 51 -183t112 -73q117 -32 344 -32v292h452v-722h-640q-235 0 -425 83.5t-299.5 250.5t-109.5 409zM128 744q15 291 218 440q179 132 499 140h639v-190h-451q-151 0 -240 -11t-167 -41t-144 -96t-78 -266 q12 -164 76 -248t155 -112t178 -38t223 -10h112v292h224v-484h-528q-196 0 -358 70t-260 206t-98 348z" />
<glyph unicode="H" horiz-adv-x="1378" d="M60 0v60h410v520h498v-520h410v-60h-470v520h-378v-520h-470zM60 120v190h122v824h-122v190h354v-500h614l1 500h349v-190h-118v-824h118v-190h-350v512h-614v-512h-354zM60 370v704h60v-704h-60zM60 1384v60h470v-498h378v498h470v-60h-410v-498h-498v498h-410z M1318 370v704h60v-704h-60z" />
<glyph unicode="I" horiz-adv-x="1404" d="M60 0v60h410v430h83l527 -770q108 -172 315 -172h9v-60h-5q-246 0 -347 180l-522 762v-430h-470zM60 120v190h122v824h-122v190h350v-463h185l322 467h182l-419 -596v-28l516 -792q62 -108 208 -114v-190q-12 -1 -23 -1q-169 0 -277 169l-528 768h-162v-424h-354zM60 370 v704h60v-704h-60zM60 1384v60h470v-470l330 470h470l-538 -722l460 -718q58 -86 141 -86h11v-61h-7q-115 0 -169 95l-496 760v16l483 656h-324l-320 -470h-101v470h-410z" />
<glyph unicode="J" horiz-adv-x="877" d="M0 -82h31q134 0 200 32q37 18 60 51t35 123v1320h551v-60h-491v-1260q-7 -114 -36.5 -156t-80.5 -69t-104 -35q-42 -6 -123 -6h-42v60zM0 -202h40q106 0 150 9q53 11 116 43t93.5 86t40.5 188v1200h437v-190h-195v-1141q-10 -128 -27.5 -173t-67 -89.5t-156.5 -76.5 t-197 -39t-234 -7v190zM0 -452q150 0 242 8t203 40t174 85t86 109t31 202v1082h141v-60h-81v-1022q-6 -166 -36 -234t-107 -128t-193 -91t-210 -41t-250 -10v60z" />
<glyph unicode="K" horiz-adv-x="1404" d="M60 0v60h410v430h83l371 -430h480v-60h-510l-364 430v-430h-470zM60 120v190h122v824h-122v190h350v-463h185l322 467h182l-419 -598v-20l294 -400h430v-190h-450l-378 424h-162v-424h-354zM60 370v704h60v-704h-60zM60 1384v60h470v-470l330 470h470l-538 -722l240 -292 h372v-60h-401l-271 344v12l483 658h-324l-320 -470h-101v470h-410z" />
<glyph unicode="L" horiz-adv-x="1312" d="M60 0v60h1252v-60h-1252zM60 120v190h122v824h-122v190h358v-1014h894v-190h-1252zM60 370v704h60v-704h-60zM60 1384v60h470v-1014h782v-60h-842v1014h-410z" />
<glyph unicode="M" horiz-adv-x="1630" d="M60 0v60h410v606h92l280 -582l285 576h93v-600h410v-60h-470v600l-302 -600h-26l-302 600v-600h-470zM60 120v190h122v824h-122v190h400l380 -632h19l380 632h391v-190h-122v-824h122v-190h-350v604h-188l-248 -516l-252 520h-180v-608h-352zM60 370v704h60v-704h-60z M60 1384v60h470l316 -600l314 600h470v-60h-435l-343 -624h-9l-348 624h-435zM1570 370v704h60v-704h-60z" />
<glyph unicode="N" horiz-adv-x="1430" d="M60 0v60h410v540h95l430 -540h435v-60h-470l-430 540v-540h-470zM60 120v190h122l-1 824h-121v190h414l418 -538h194v538h344v-190h-120v-824h120v-190h-400l-432 537h-176v-537h-362zM60 370v704h60v-704h-60zM60 1384v60h470l430 -540v540h470v-60h-410v-538h-95 l-420 538h-445zM1370 370v704h60v-704h-60z" />
<glyph unicode="O" horiz-adv-x="1550" d="M60 0v60h462v477h97l585 -873q89 -116 330 -116h16v-60h-10q-277 0 -364 112l-594 877v-477h-522zM60 120v190h122v824h-122v190h940q138 -12 220 -68t109 -102t35 -117q2 -18 2 -36q0 -54 -18 -110q-24 -75 -83 -127t-313 -182v-26l432 -692q38 -66 162 -66h4v-190h-27 q-207 0 -295 116l-562 876h-202v-480h-404zM60 370v704h60v-704h-60zM60 1384v60h940q174 -16 279 -86t143 -135t54 -159q5 -28 5 -58q0 -69 -26 -147q-37 -111 -127 -181t-258 -110l372 -608q34 -42 102 -42h6v-60h-13q-91 0 -125 52l-402 646v24q206 79 282 142 q74 63 106 154q23 67 24 129q0 23 -4 45q-12 83 -43 137.5t-126 118.5t-249 78h-940zM504 728h496q39 0 85 36.5t52 177.5q-9 137 -57 180t-81 43h-495v-437zM557 792v317h404q27 0 66 -31.5t46 -130.5q-4 -103 -41.5 -129t-69.5 -26h-405zM619 847h309q24 0 53.5 16.5 t31.5 84.5q-5 62 -35.5 82.5t-50.5 20.5h-308v-204z" />
<glyph unicode="P" horiz-adv-x="1501" d="M60 0v60h462v477h512q314 65 380 285q18 60 18 123q0 107 -53 221q-31 66 -122 132t-257 86h-940v60h940q174 -22 281 -90t151 -166t52 -167q5 -46 5 -91q0 -23 -1 -45q-4 -67 -29 -136t-135 -157t-290 -115h-452v-477h-522zM60 120v190h122v824h-122v190h940 q250 -61 318 -188q30 -56 42 -136q4 -28 4 -56q0 -51 -14 -102q-22 -78 -90 -140t-228 -102h-568v-480h-404zM60 370v704h60v-704h-60zM504 728h496q39 0 85 36.5t52 177.5q-9 137 -57 180t-81 43h-495v-437zM557 792v317h404q27 0 66 -31.5t46 -130.5q-4 -103 -41.5 -129 t-69.5 -26h-405zM619 847h309q24 0 53.5 16.5t31.5 84.5q-5 62 -35.5 82.5t-50.5 20.5h-308v-204z" />
<glyph unicode="Q" horiz-adv-x="1639" d="M10 723q0 180 53 310.5t155 226.5t246 144t368 54q228 -6 402 -70t284 -212q99 -133 99 -384q0 -27 -1 -56q-24 -132 -96 -231q-23 -32 -23 -51q0 -29 50 -29q21 0 50 5h42v-60h-60q-153 9 -153 64q0 9 4 19q28 73 62 119t64 164q4 41 4 80q0 359 -312 501 q-174 79 -383.5 79t-351.5 -45t-240 -131q-195 -171 -203 -505q8 -446 353 -602q172 -78 412 -78l744 25h60v-60l-859 -25q-566 15 -719 430q-51 138 -51 318zM149 712q12 453 399 576q129 40 317.5 40t344.5 -72q281 -127 281 -454q0 -34 -3 -71q-32 -103 -60 -149 t-56 -142q-4 -13 -4 -25q0 -76 150 -105h120v-190l-800 -25q-216 0 -372 71q-309 141 -317 546zM439 704q0 -177 77 -306t306 -129v91q74 -8 134 -8q216 0 236 100q26 127 36 252q-10 170 -85.5 299t-320.5 129q-383 0 -383 -428zM499 703q0 363 330 363q210 0 275 -109.5 t72 -253.5q-7 -105 -30 -213q-17 -84 -201 -84q-52 0 -116 7v-76q-197 0 -263.5 109t-66.5 257zM551 702q0 -123 55 -216t218 -93v64q51 -5 92 -5q156 0 171 72q19 90 24 178q-5 124 -59 216t-228 92q-273 0 -273 -308z" />
<glyph unicode="R" horiz-adv-x="1550" d="M60 0v60h462v477h97l456 -477h475v-60h-510l-458 477v-477h-522zM60 120v190h122v824h-122v190h940q138 -12 220 -68t109 -102t35 -117q2 -18 2 -36q0 -54 -18 -110q-24 -75 -83 -127t-313 -182v-26l176 -244l422 -2v-190h-444l-440 480h-202v-480h-404zM60 370v704h60 v-704h-60zM60 1384v60h940q174 -16 279 -86t143 -135t54 -159q5 -28 5 -58q0 -69 -26 -147q-37 -111 -127 -181t-258 -110l108 -138h372v-60h-407l-133 192v14q206 83 282 146q74 63 106 154q23 67 24 129q0 23 -4 45q-12 83 -43 137.5t-126 118.5t-249 78h-940zM504 728 h496q39 0 85 36.5t52 177.5q-9 137 -57 180t-81 43h-495v-437zM557 792v317h404q27 0 66 -31.5t46 -130.5q-4 -103 -41.5 -129t-69.5 -26h-405zM619 847h309q24 0 53.5 16.5t31.5 84.5q-5 62 -35.5 82.5t-50.5 20.5h-308v-204z" />
<glyph unicode="S" horiz-adv-x="1135" d="M60 0v60h708q256 54 256 275v13q-8 232 -352 524q-52 68 -52 113q0 90 206 89h18h291v-60h-291h-25q-126 0 -126 -45q0 -35 75 -97q318 -279 318 -542v-10q-6 -268 -318 -320h-708zM60 120v190h245q291 19 291 151q0 81 -108 205q-282 284 -282 450q0 21 4 40 q40 168 194 168h4h727v-190h-291q-18 1 -34 1q-268 0 -268 -132q0 -54 44 -129q364 -304 383 -502q2 -16 1 -31q0 -171 -199 -221h-711zM60 370v60h244h25q137 0 137 48q0 39 -90 110q-303 278 -303 517q0 36 7 71q52 268 328 268h727v-60h-727q-208 -4 -262 -222 q-7 -30 -8 -62q0 -200 294 -472q100 -99 100 -160q0 -92 -228 -98h-244z" />
<glyph unicode="T" horiz-adv-x="1266" d="M0 1014v60h458v-1014h350v1014h458v-60h-398v-1014h-470v1014h-398zM0 1134v190h1266v-190h-514v-1001h-217v1001h-535zM0 1384v60h1266v-60h-1266z" />
<glyph unicode="U" horiz-adv-x="1494" d="M60 596v478h60v-478q10 -178 55 -267t136 -157t219 -101t254 -37q150 6 274 45t199 104t124 154t53 260v477h60v-477q-3 -180 -59.5 -287.5t-142.5 -179.5q-178 -148 -508 -156q-133 3 -270.5 36.5t-240 105.5t-158 185t-55.5 295zM60 1134v190h357v-732q1 -176 78 -276 t283 -102q196 12 279 109q81 95 81 261v8v732h356v-190h-113v-537q-8 -161 -48.5 -236.5t-105 -130.5t-183 -95.5t-258.5 -46.5q-118 4 -238.5 35t-201.5 95t-118 131.5t-46 246.5v538h-122zM60 1384v60h470v-854q1 -145 59.5 -202.5t190.5 -61.5q106 2 177 62q67 57 67 187 v15v854h470v-60h-410v-794v-12q0 -143 -68 -219q-70 -79 -236 -93q-174 6 -241 84t-69 240v794h-410z" />
<glyph unicode="V" horiz-adv-x="1586" d="M60 1014v60h62l352 -1014h693l365 1014h54v-60h-12l-371 -1014h-767l-364 1014h-12zM60 1134v190h322l341 -1112h170l336 1112h357v-190h-87l-372 -1019h-617l-339 1019h-111zM60 1384v60h419l328 -1109l332 1109h447v-60h-404l-329 -1109h-87l-334 1109h-372z" />
<glyph unicode="W" horiz-adv-x="1932" d="M60 1014v60h60l318 -1014h374l158 611h82l187 -611h380l253 1014h60v-60h-12l-257 -1014h-470l-183 612l-152 -612h-470l-316 1014h-12zM60 1134v190h270l204 -616h158l195 619h252l213 -618h133l156 615h291v-190h-106l-249 -1023h-297l-192 613h-158l-168 -605l-278 1 l-318 1014h-106zM60 1384v60h358l198 -624l172 624h432l201 -624l134 624h377v-60h-329l-148 -624h-67l-209 624h-340l-180 -624h-86l-198 624h-315z" />
<glyph unicode="X" horiz-adv-x="1248" d="M60 0v60h268l286 446h80l288 -446h266v-60h-300l-298 446l-294 -446h-296zM60 120v190h104l264 362v120l-266 342h-102v190h229l301 -432h120l300 432h238v-190h-109l-265 -338v-128l279 -358h95v-190h-222l-298 440h-146l-284 -440h-238zM60 370v60h12l244 292l-244 292 h-12v60h60l256 -312v-70l-256 -322h-60zM60 1384v60h296l294 -446l298 446h300v-60h-262l-303 -446h-65l-296 446h-262zM932 692l256 -322h60v60h-12l-244 292l244 292h12v60h-60l-256 -312v-70z" />
<glyph unicode="Y" horiz-adv-x="1264" d="M60 1014v60h60l368 -526v-488h352v488l364 526h60v-60h-26l-340 -484v-530h-472v530l-340 484h-26zM60 1134v190h242l304 -444h120l302 444h236v-190h-82l-396 -570v-448h-226v444l-401 574h-99zM60 1384v60h306l294 -446l298 446h306v-60h-266l-303 -446h-65l-296 446 h-274z" />
<glyph unicode="Z" horiz-adv-x="1380" d="M60 0v430l699 584h-699v60h755v-85l-695 -586v-343h1260v-60h-1320zM60 1324h1202v-266l-696 -566v-182h814v-190h-1204v262l690 584v168h-805zM60 1384v60h1320v-430l-699 -584h699v-60h-759v85l699 578v351h-1260z" />
<glyph unicode="[" d="M-240 1014v430h300v-60h-240v-310h240v-60h-300zM-120 1134v190h180v-190h-180z" />
<glyph unicode="\" d="M1636 -82h300v-430h-300v60h240v310h-240v60zM1636 -202v-190h180v190h-180z" />
<glyph unicode="]" d="M0 1014v60h240v310h-240v60h300v-430h-300zM0 1134h181v190h-181v-190z" />
<glyph unicode="^" d="M60 60v310h60v-310h-60z" />
<glyph unicode="_" horiz-adv-x="1440" d="M10 743q0 170 63.5 303.5t176 222t227.5 142t339 65.5q232 -12 354 -56t246 -160l-284 -316q-72 60 -128 86t-184 34q-124 -16 -182 -54t-102 -98t-56 -184q12 -124 56 -174t110 -82t142 -40t213 -2v292h439v-722h-621q-228 0 -412.5 83.5t-290.5 250.5t-106 409zM70 739 q22 -203 72 -301t118 -168t218 -138t338 -72h564v602h-318v-292q-58 -22 -242 -18q-148 20 -220 58t-132 114t-60 216t58 214t132.5 117t238 50t289.5 -93l198 224q-68 76 -178 112t-330 49q-210 -5 -319 -57t-204 -132q-216 -182 -223 -485zM124 738q8 156 70 269t144 183 t184 116t296 54q362 -21 428 -112l-128 -150q-86 74 -284 76q-182 -4 -267 -50t-155 -135t-80 -251q2 -154 81 -245t160 -130t249 -65q214 -6 294 28v272h206v-482h-506q-164 6 -277 57t-200 126t-148 171t-67 268z" />
<glyph unicode="`" horiz-adv-x="1615" d="M-20 1014v430h1212l483 -1444h-546l-91 260h-429l-91 -260h-518l333 1014h-353zM40 1074h382l-338 -1014h394l93 260h515l94 -260h413l-440 1324h-1113v-310zM104 1136v184h996l412 -1192h-284l-100 256h-600l-92 -256h-264l340 1008h-408zM558 510h549l-267 671z M638 568l200 489l186 -489h-386zM708 612h238l-110 322z" />
<glyph unicode="a" horiz-adv-x="1615" d="M0 0l475 1444h717l483 -1444h-546l-91 260h-429l-91 -260h-518zM84 60h394l93 260h515l94 -260h413l-440 1324h-628zM184 132l396 1188h524l400 -1188h-276l-108 256h-588l-96 -256h-252zM558 510h549l-267 671zM638 568l200 489l186 -489h-386zM708 612h238l-110 322z " />
<glyph unicode="b" horiz-adv-x="1628" d="M60 0v1444h985q237 -2 360.5 -82t149.5 -268q1 -16 1 -32q0 -121 -62 -194q-70 -82 -231 -135v-4q157 -20 259 -119q95 -94 95 -211q0 -171 -87.5 -259t-225.5 -115q-128 -25 -306 -25h-27h-911zM120 60h851q26 -1 50 0q160 0 273 22q263 52 263 302v15q0 98 -82 178 q-36 35 -93 63.5t-174 91.5q156 78 226 151q62 64 62 178q0 16 -1 33q-22 158 -129 222.5t-321 67.5h-925v-1324zM184 124v1192h822q190 -2 296 -51t116 -175q2 -21 1 -40q0 -95 -41 -140q-50 -54 -214 -178q128 -96 226 -168t102 -164q-4 -120 -54 -178q-84 -98 -490 -98 h-764zM486 234h423q13 -1 25 -1q102 -1 168 43q74 48 81 150q-7 98 -78 148q-68 48 -186 48h-10h-423v-388zM490 810h382h12q96 0 164 46q72 49 72 123v11q0 78 -67 118q-72 44 -181 45h-382v-343zM534 868v232h311q88 0 146 -30q55 -28 55 -80v-6q1 -6 1 -13q0 -57 -51 -85 q-40 -22 -100 -21q-24 0 -51 3h-311zM538 287v283h345h15q90 0 148 -33q62 -36 62 -112t-50 -108q-47 -30 -161 -30h-14h-345zM580 348h320q12 -1 22 -1q119 0 130 81q-8 84 -148 84h-324v-164zM580 928h264q15 -1 28 -1q106 0 118 57q-26 64 -146 64h-264v-120z" />
<glyph unicode="c" horiz-adv-x="1484" d="M10 743q0 170 65.5 303.5t181.5 221.5q230 176 587 176h640v-430h-452q-152 0 -225 -9t-130 -30t-101 -73t-51 -184q5 -128 51 -183t112 -73q117 -32 344 -32h452v-430h-640q-235 0 -425 83.5t-299.5 250.5t-109.5 409zM66 746v-8q0 -222 104 -374q106 -154 284 -228.5 t397 -78.5h589v313h-398h-31q-207 0 -349 37q-180 48 -196 314q12 169 69.5 227t123.5 84t146.5 35.5t226.5 10.5h408v306h-594q-534 -13 -713 -354q-63 -121 -67 -284zM128 744q15 291 218 440q98 72 222 104t280 40h530v-192h-346q-150 -2 -239 -13t-167 -41t-144 -96 t-78 -266q12 -164 76 -248t155 -112t178 -38t223 -10h336v-192h-528q-196 0 -358 70t-260 206t-98 348z" />
<glyph unicode="d" horiz-adv-x="1662" d="M60 0v1444h852q345 0 530 -167q210 -191 210 -555q-21 -390 -212 -558q-187 -164 -524 -164h-28h-828zM120 60h768q240 6 343 47t171 104t126 186t64 325q-8 194 -29 251t-54 122t-103 133t-195 114q-115 42 -271 42h-28h-792v-1324zM180 120v1200l721 -3q17 1 34 1 q139 0 241 -38q114 -42 178.5 -103.5t95.5 -120.5t49.5 -110.5t26.5 -226.5q-7 -182 -59.5 -293.5t-115 -168.5t-157 -93.5t-315.5 -43.5h-699zM450 292h341q203 0 304 165q44 72 57 258q-4 168 -51 249t-120 126t-192 45h-339v-843zM514 344v730h278q174 0 256 -148 q38 -71 42 -217q-12 -161 -48 -223q-82 -142 -248 -142h-280zM574 404h214q91 3 133.5 38.5t64 76t31.5 186.5q-7 122 -31 174t-67.5 89t-131.5 38h-213v-602z" />
<glyph unicode="e" horiz-adv-x="1360" d="M60 0v1444h1238v-430h-768v-166h496v-252h-496v-166h830v-430h-1300zM120 60h1180v310h-830v284h496v134h-496v286h768v310h-1118v-1324zM180 116v1208h1000v-188h-760v-388h484v-54h-486l-2 -386h824v-192h-1060z" />
<glyph unicode="f" horiz-adv-x="1298" d="M60 0v1444h1238v-430h-768v-166h496v-252h-496v-596h-470zM120 60h350v594h496v134h-496v286h768v310h-1118v-1324zM180 120v1204h1000v-192h-760v-384h484v-54h-486l-2 -574h-236z" />
<glyph unicode="g" horiz-adv-x="1484" d="M10 743q0 170 65.5 303.5t181.5 221.5q230 176 587 176h640v-430h-452q-152 0 -225 -9t-130 -30t-101 -73t-51 -184q5 -128 51 -183t112 -73q117 -32 344 -32v292h452v-722h-640q-235 0 -425 83.5t-299.5 250.5t-109.5 409zM70 743v-9q0 -221 102 -370q104 -152 280 -226 t392 -78h580v602h-332v-292h-60h-31q-203 0 -343 37q-177 48 -193 311q11 168 68 225t122 83t144.5 35.5t232.5 12.5h392v310h-580q-525 -6 -708 -360q-62 -120 -66 -281zM128 744q15 291 218 440q98 72 222 104t280 40h516v-192h-332q-150 -2 -239 -13t-167 -41t-144 -96 t-78 -266q12 -164 76 -248t155 -112t178 -38t223 -10h112v292h220v-484h-524q-196 0 -358 70t-260 206t-98 348z" />
<glyph unicode="h" horiz-adv-x="1378" d="M60 0v1444h470v-498h378v498h470v-1444h-470v520h-378v-520h-470zM120 60h350v520h498v-520h350v1324h-350v-498h-498v498h-350v-1324zM180 124v1200h232v-500h616v504h228v-1200h-228v504h-608v-508h-240z" />
<glyph unicode="i" horiz-adv-x="530" d="M60 0v1444h470v-1444h-470zM120 60h350v1324h-350v-1324zM181 117v1201l227 2v-1200z" />
<glyph unicode="j" horiz-adv-x="856" d="M0 0v430q40 -10 83 -10q40 0 83 9q88 19 118 43t42 114v858h530v-430h-60v-560q-8 -158 -48 -224q-97 -159 -344 -216q-136 -10 -221 -11t-183 -3zM60 60h46q178 0 298 14q140 34 206 84t96 110.5t30 185.5v620h60v310h-410v-798q-13 -114 -65 -152t-128 -57 q-58 -14 -105 -14q-14 0 -28 1v-304zM128 114v202q12 -1 23 -1q50 0 89 15q48 18 116 68t82 186l-2 740h304l2 -196h-58v-676q0 -168 -94 -245q-50 -41 -182 -75q-140 -18 -280 -18z" />
<glyph unicode="k" horiz-adv-x="1404" d="M60 0v1444h470v-470l330 470h470l-538 -722l240 -292h372v-430h-510l-364 430v-430h-470zM120 60h350v430h83l371 -430h420v310h-341l-271 338v24l483 652h-324l-320 -470h-101v470h-350v-1324zM180 1322h230v-461h185l322 467h182l-419 -588v-28l299 -397l305 1v-200 l-325 -1l-383 429h-162v-425h-233z" />
<glyph unicode="l" horiz-adv-x="1312" d="M60 0v1444h470v-1014h782v-430h-1252zM120 60h1132v310h-782v1014h-350v-1324zM180 116v1202h226v-1010h782v-192h-1008z" />
<glyph unicode="m" horiz-adv-x="1630" d="M60 0v1444h470l316 -600l314 600h470v-1444h-470v600l-302 -600h-26l-302 600v-600h-470zM120 60h350v606h92l280 -582l285 576h93v-600h350v1324h-375l-344 -624h-8l-348 624h-375v-1324zM184 128v1192h278l378 -628h16l380 628h272v-1188h-228v592h-188l-248 -516 l-252 520h-180v-600h-228z" />
<glyph unicode="n" horiz-adv-x="1430" d="M60 0v1444h470l430 -540v540h470v-1444h-470l-430 540v-540h-470zM120 60h350v540h95l430 -540h375v1324h-350v-538h-95l-420 538h-385v-1324zM180 120v1200h294l418 -534h194v532h225v-1200h-282l-431 539h-176l-2 -537h-240z" />
<glyph unicode="o" horiz-adv-x="1677" d="M10 714q0 358 216 550q215 191 609 191q259 0 447 -85.5t287 -252t99 -403.5t-99 -404q-199 -335 -734 -335q-260 0 -447 85q-378 171 -378 654zM70 715q8 -446 353 -602q172 -78 412 -78q494 0 677 309q92 153 96 370q-8 443 -360 603q-174 79 -383.5 79t-351.5 -45 t-240 -131q-195 -171 -203 -505zM138 714q9 451 406 574q130 41 322 41t351 -71q324 -146 330 -544q-3 -197 -87 -336q-170 -279 -621 -279q-220 0 -378 71q-317 142 -323 544zM426 708q0 -175 81 -307t319 -132q186 0 278 69.5t114.5 158t32.5 211.5q-10 178 -89.5 309.5 t-335.5 131.5q-400 0 -400 -441zM486 712q0 380 340 380q216 0 283 -113.5t75 -266.5q-8 -107 -27 -183.5t-96.5 -136t-234.5 -59.5q-202 0 -271 113.5t-69 265.5zM551 709q0 -127 56 -221.5t223 -94.5q128 0 192 50t80 113t21 153q-5 127 -60.5 221t-232.5 94 q-279 0 -279 -315z" />
<glyph unicode="p" horiz-adv-x="1501" d="M60 0v1444h940q174 -22 281 -90t151 -166t52 -167q5 -46 5 -91q0 -23 -1 -45q-4 -67 -29 -136t-135 -157t-290 -115h-452v-477h-522zM120 60h402v477h512q314 65 380 285q18 60 18 123q0 107 -53 221q-31 66 -122 132t-257 86h-880v-1324zM184 128v1189l816 3 q132 -28 210 -78t108 -106t42 -136q4 -28 4 -56q0 -52 -14 -102q-22 -78 -90 -140t-228 -102h-568v-472h-280zM504 728h496q39 0 85 36.5t52 177.5q-9 137 -57 180t-81 43h-495v-437zM557 792v317h404q27 0 66 -31.5t46 -130.5q-4 -103 -41.5 -129t-69.5 -26h-405zM619 847 h309q24 0 53.5 16.5t31.5 84.5q-5 62 -35.5 82.5t-50.5 20.5h-308v-204z" />
<glyph unicode="q" horiz-adv-x="1639" d="M10 723q0 180 53 310.5t155 226.5t246 144t368 54q228 -6 402 -70t284 -212q99 -133 99 -384q0 -27 -1 -56q-24 -132 -96 -231q-23 -32 -23 -51q0 -29 50 -29q21 0 50 5h42v-430l-859 -25q-566 15 -719 430q-51 138 -51 318zM70 715q8 -446 353 -602q172 -78 412 -78 l744 25v310q-153 9 -153 64q0 9 4 19q28 73 62 119t60 164q5 48 5 93q0 347 -309 488q-174 79 -383.5 79t-351.5 -45t-240 -131q-195 -171 -203 -505zM149 712q12 453 399 576q129 40 317.5 40t344.5 -72q281 -127 281 -454q0 -34 -3 -71q-32 -103 -60 -149t-56 -142 q-4 -13 -4 -26q0 -75 148 -106v-180l-678 -33q-216 0 -372 71q-309 141 -317 546zM439 704q0 -177 77 -306t306 -129v91q74 -8 134 -8q216 0 236 100q26 127 36 252q-10 170 -85.5 299t-320.5 129q-383 0 -383 -428zM499 703q0 363 330 363q210 0 275 -109.5t72 -253.5 q-7 -105 -30 -213q-17 -84 -201 -84q-52 0 -116 7v-76q-197 0 -263.5 109t-66.5 257zM551 702q0 -123 55 -216t218 -93v64q51 -5 92 -5q156 0 171 72q19 90 24 178q-5 124 -59 216t-228 92q-273 0 -273 -308z" />
<glyph unicode="r" horiz-adv-x="1550" d="M60 0v1444h940q174 -16 279 -86t143 -135t54 -159q5 -28 5 -58q0 -69 -26 -147q-37 -111 -127 -181t-258 -110l108 -138h372v-430h-510l-458 477v-477h-522zM120 60h402v477h97l456 -477h415v310h-347l-135 190v28q214 70 288 132t104 154q22 67 22 129q0 24 -4 47 q-12 83 -43 137.5t-126 118.5t-249 78h-880v-1324zM184 128v1198h816q138 -14 220 -70t109 -102t35 -117q2 -18 2 -36q0 -54 -18 -110q-24 -75 -83 -127t-317 -172v-28l164 -258h318v-184h-318l-446 478h-202v-472h-280zM504 728h496q39 0 85 36.5t52 177.5q-9 137 -57 180 t-81 43h-495v-437zM557 792v317h404q27 0 66 -31.5t46 -130.5q-4 -103 -41.5 -129t-69.5 -26h-405zM619 847h309q24 0 53.5 16.5t31.5 84.5q-5 62 -35.5 82.5t-50.5 20.5h-308v-204z" />
<glyph unicode="s" horiz-adv-x="1135" d="M0 0v430h304h25q137 0 137 48q0 39 -90 110q-303 278 -303 517q0 36 7 71q52 268 328 268h727v-430h-291h-25q-126 0 -126 -45q0 -35 75 -97q318 -279 318 -542v-10q-6 -268 -318 -320h-768zM60 60h708q256 54 256 275v13q-8 232 -352 524q-52 68 -52 113q0 90 206 89h18 h231v310h-667q-208 -4 -262 -222q-7 -30 -8 -62q0 -200 294 -472q100 -99 100 -160q0 -92 -228 -98h-244v-310zM128 122v192h176q292 16 292 148q0 80 -108 204q-282 284 -282 450q0 21 4 40q39 166 193 166h7h604v-188h-170q-18 1 -34 1q-268 0 -268 -132q0 -54 44 -129 q364 -304 383 -502q2 -16 2 -31q0 -171 -201 -219h-642z" />
<glyph unicode="t" horiz-adv-x="1266" d="M0 1014v430h1266v-430h-398v-1014h-470v1014h-398zM60 1074h398v-1014h350v1014h398v310h-1146v-310zM132 1136v188h1008v-188h-388l2 -1003h-218v1003h-404z" />
<glyph unicode="u" horiz-adv-x="1494" d="M60 596v848h470v-854q-1 -13 0 -25q0 -126 56 -178q62 -57 194 -61q106 2 177 62q67 57 67 187v15v854h470v-847q-3 -180 -59.5 -287.5t-142.5 -179.5q-178 -148 -508 -156q-133 3 -270.5 36.5t-240 105.5t-158 185t-55.5 295zM120 596q2 -182 51 -269t140 -155t219 -101 t254 -37q150 6 274 45t199 104t124 154t53 260v787h-350v-794v-21q0 -279 -306 -303q-172 6 -242 84q-66 74 -66 223v17v794h-350v-788zM177 596v731h240v-735q-1 -18 -1 -34q0 -153 74 -243q82 -99 288 -101q196 12 279 109q81 95 81 261v8v732h246v-726 q-11 -162 -51.5 -237.5t-105 -130.5t-183 -95.5t-258.5 -46.5q-118 4 -238.5 35t-201.5 95t-123.5 132t-45.5 246z" />
<glyph unicode="v" horiz-adv-x="1722" d="M0 1444h551l328 -1109l332 1109h579l-515 -1444h-767zM87 1384l459 -1324h693l475 1324h-460l-329 -1109h-87l-334 1109h-417zM184 1323h277l338 -1107h170l334 1109h337l-437 -1206h-617z" />
<glyph unicode="w" horiz-adv-x="2003" d="M0 1444h470l198 -624l172 624h432l201 -624l134 624h470l-362 -1444h-470l-183 612l-152 -612h-470zM76 1384l414 -1324h374l158 611h82l187 -611h380l333 1324h-349l-148 -624h-67l-209 624h-340l-180 -624h-86l-198 624h-351zM158 1327h227l205 -619h158l195 619h252 l213 -618h133l158 619h230l-296 -1217h-297l-192 613h-158l-168 -605l-278 1z" />
<glyph unicode="x" horiz-adv-x="1616" d="M0 0l530 722l-530 722h570l294 -446l298 446h570l-530 -722l530 -722h-570l-298 446l-294 -446h-570zM114 1384l476 -622v-70l-470 -632h422l286 446h80l288 -446h422l-476 629v68l478 627h-420l-303 -446h-65l-296 446h-422zM226 1330h276l304 -442h120l302 444h286 l-424 -540v-128l428 -550h-276l-298 442h-146l-284 -438h-272l402 550v120z" />
<glyph unicode="y" horiz-adv-x="1614" d="M0 1444h570l294 -446l298 446h570l-630 -914v-530h-472v530zM116 1384l576 -836v-488h352v488l578 836h-420l-303 -446h-65l-296 446h-422zM226 1330h276l304 -442h120l302 444h286l-528 -760v-448h-226v444z" />
<glyph unicode="z" horiz-adv-x="1380" d="M60 0v430l699 584h-699v430h1320v-430l-699 -584h699v-430h-1320zM120 60h1200v310h-699v85l699 578v351h-1200v-310h695l-1 -84l-694 -587v-343zM176 120v262l690 584v164h-682v190h1078v-262l-696 -566v-174h686v-198h-1076z" />
<glyph unicode="{" d="M-240 0v430h300v-60h-240v-310h240v-60h-300zM-120 120v190h180v-190h-180z" />
<glyph unicode="|" d="M-1936 -82h300v-60h-240v-310h240v-60h-300v430zM-1816 -202h180v-190h-180v190z" />
<glyph unicode="}" d="M0 0v60h240v310h-240v60h300v-430h-300zM0 120h180v190h-180v-190z" />
<glyph unicode="~" horiz-adv-x="1615" d="M-21 0l483 1444h1212v-430h-353l333 -1014h-518l-91 260h-429l-91 -260h-546zM61 60h413l94 260h515l93 -260h394l-338 1014h382v310h-1113zM143 128l412 1192h996v-184h-408l340 -1008h-264l-92 256h-600l-100 -256h-284zM548 510h549l-282 671zM631 568l186 489 l200 -489h-386zM708 612h238l-128 322z" />
<glyph unicode="&#xad;" horiz-adv-x="758" d="M92 377v360h574v-360h-574zM152 437h454v240h-454v-240zM198 483v148h367v-148h-367z" />
<glyph unicode="&#xb6;" horiz-adv-x="2048" d="M-124 61v140q477 28 477 -56q28 -140 -56 -168l56 -28q56 224 169 252q280 0 308 -112q56 -225 -140 -309h-168l-141 141q-28 -169 -393 -141l-28 281h-84zM101 33h112v56h-112v-56zM101 -51v-85l140 28l-28 57h-112zM127.5 252.5q17.5 -13.5 52.5 -8.5q60 9 160 94 q-147 -30 -188.5 -51t-24 -34.5zM135 227q-75 54 182 173l313 25l-45 49l-20 50l40 59l5 25l-141 64l60 644v164q-40 10 -60 69l86 807l-66 30l-25 84l35 45l379 39l20 -64l-167 -119l-106 -10l-70 -738q80 208 191.5 285t260.5 97t303 2.5t234.5 -69.5t136 -166t71.5 -233 l20 -40l5 -183l81 -649l-283 -148l5 -25l30 -25q316 79 334 -10l122 -19q69 -80 -1 -114l-1445 -40zM224 -287h393v-140l-196 -28h140v-84h-112l-56 -169l-113 28l-56 253v140zM486 682l581 -223q-37 133 -56.5 208t-45 163t-69.5 175t-137 118q-98 -7 -135 -53 t-69.5 -126.5t-68.5 -261.5zM522 61q-29 -140 56 -197l112 28l-28 197zM524 1415l13 -96q63 2 132.5 -1.5t129 -34.5t113.5 -88t77 -128t78 -528l23 -13l18 810l-230 40zM524 1777l71 587h-18zM544 1395l335 -34l213 -42l-15 -728l-21 191q-22 210 -47 289t-80.5 138.5 t-111 88t-116.5 32.5t-144 8zM544 1499l16 -24l121 17l131 12l179 3l298 -12l195 -20l204 -3l66 -27l-5 67q-83 32 -177 46t-233 23t-276 6t-251 -8t-257 -65zM555 1497l27 22q140 37 314 42t262.5 5t205.5 -5q240 -10 380 -64l5 -37l-83 20l-270 19l-197 10l-240 5l-172 -2 l-142 -13l-85 -14zM557 1428l53 -5h10l8 37l-71 5v-37zM645 -567q-56 140 140 280q281 0 309 -112q56 -225 -140 -309q-281 0 -309 141zM729 1400h35l15 90l-30 2zM785 -427q-28 -140 56 -197l113 28l-28 197zM858 201q365 28 393 -56q28 -140 -56 -168q84 28 84 -85 l112 309h197l112 -337v-84l-281 84l-56 -84l-140 56q-112 -84 -365 -56v421zM883 1393l96 -20l20 114l-81 5zM954 1933q151 -17 233 -21t165.5 -9t100 4t7.5 26t-43 32t-108.5 22.5t-135 7.5t-110 -7.5t-109.5 -54.5zM998 33h113v56h-113v-56zM998 -51v-85l141 28l-28 57 h-113zM1126 -283q112 56 224 -112q0 112 57 112h448v-140h-112v-140h253q-197 196 -56 280h280v-112l-140 -56q168 -169 0 -253h-449l-28 253l-112 28l-28 -281h-85l-140 141v-141h-112v421zM1302 1309l10 -20l-5 -827l81 -5l5 891h15v124l-106 10v-173zM1413 464l23 3 q53 498 94.5 599.5t69.5 133.5t74.5 49.5t72.5 17.5v104l-331 -37zM1428 536l4 779l292 41l10 -72q-66 -20 -101 -35t-60.5 -54.5t-58.5 -121t-63 -324.5zM1443 1883q16 -69 52.5 -87.5t60.5 -23.5t40.5 13.5t2.5 43.5t-40.5 43.5t-48 21t-67.5 -10.5zM1447 33v-84h85 l-29 140zM1456 472l311 163v13q-39 280 -72 373t-71 79q-62 -39 -83.5 -86t-30 -93t-29.5 -189l-15 -164zM1493 1888q67 -2 99 -61q13 -23 4 -30.5t-22 -3.5t-33 9t-41 24q-52 49 -7 62zM1537 1356l40 2l36 97l-56 7zM1618 1361l73 -3l33 45l7 44l-80 15zM1739 346.5 q-45 -11.5 78.5 -2.5t259.5 26q-20 50 -60.5 47.5t-74.5 -22.5t-96 -28.5t-107 -20z" />
<glyph unicode="&#xbf;" horiz-adv-x="1176" d="M84 332.5q0 119.5 48.5 188t147 148.5t142 132t43.5 132h410q-13 -240 -137 -331q-50 -38 -93.5 -72t-43.5 -86t52 -68t135 -16q160 0 304 68v-353q-239 -75 -446 -75q-311 0 -470 135q-92 78 -92 197.5zM144 338q10 -94 83 -161q133 -122 419 -117q222 -4 386 74v204 q-83 -35 -215.5 -39.5t-203.5 27.5t-71 117t54 128t98 76q104 78 126 227h-304q2 -48 -53 -103t-149 -136t-133 -138t-37 -159zM202 328q2 100 31 150t123 128t208 220h200q-60 -110 -103 -141t-108 -87t-64 -175q3 -93 91 -137t205 -40t193 30v-108q-34 -18 -128 -36 t-208 -16t-213 24t-155 74t-72 114zM447 1083v385h446v-385h-446zM503 1135h331v277h-331v-277zM570 1184v178h201v-178h-201z" />
<glyph unicode="&#xc0;" horiz-adv-x="1492" d="M60 0v60h370l92 260h508l92 -260h370v-60h-410l-92 260h-428l-92 -260h-410zM60 120v190h128l332 1006h524l339 -1006h109v-190h-321l-111 264h-588l-90 -264h-322zM60 370v60h12l354 1014h730l324 -1014h12v-60h-60l-326 1014h-630l-354 -1014h-62zM267 1800h462 l176 -318zM480 1742l320 -150l-98 150h-222zM510 510h549l-267 671zM582 1720l153 -70l-47 70h-106zM586 568l200 489l186 -489h-386zM660 612h238l-110 322z" />
<glyph unicode="&#xc1;" horiz-adv-x="1492" d="M60 0v60h370l92 260h508l92 -260h370v-60h-410l-92 260h-428l-92 -260h-410zM60 120v190h128l332 1006h524l339 -1006h109v-190h-321l-111 264h-588l-90 -264h-322zM60 370v60h12l354 1014h730l324 -1014h12v-60h-60l-326 1014h-630l-354 -1014h-62zM510 510h549 l-267 671zM586 568l200 489l186 -489h-386zM660 612h238l-110 322zM685 1478l176 318h462zM808 1592l310 150h-216zM873 1650l47 70h106z" />
<glyph unicode="&#xc2;" horiz-adv-x="1492" d="M60 0v60h370l92 260h508l92 -260h370v-60h-410l-92 260h-428l-92 -260h-410zM60 120v190h128l332 1006h524l339 -1006h109v-190h-321l-111 264h-588l-90 -264h-322zM60 370v60h12l354 1014h730l324 -1014h12v-60h-60l-326 1014h-630l-354 -1014h-62zM509 1475v59l278 283 l279 -283v-62l-277 174zM510 510h549l-267 671zM586 568l200 489l186 -489h-386zM594 1576l190 128l196 -120l-196 172zM660 612h238l-110 322z" />
<glyph unicode="&#xc3;" horiz-adv-x="1492" d="M60 0v60h370l92 260h508l92 -260h370v-60h-410l-92 260h-428l-92 -260h-410zM60 120v190h128l332 1006h524l339 -1006h109v-190h-321l-111 264h-588l-90 -264h-322zM60 370v60h12l354 1014h730l324 -1014h12v-60h-60l-326 1014h-630l-354 -1014h-62zM443 1648 q147 270 322 79t323 -51l76 -40q-240 -232 -408 -50t-253 15zM510 510h549l-267 671zM560 1724q64 -4 121 -20t153 -118t210 14q-120 -42 -171 -15t-131 112t-182 27zM586 568l200 489l186 -489h-386zM660 612h238l-110 322z" />
<glyph unicode="&#xc4;" horiz-adv-x="1492" d="M60 0v60h370l92 260h508l92 -260h370v-60h-410l-92 260h-428l-92 -260h-410zM60 120v190h128l332 1006h524l339 -1006h109v-190h-321l-111 264h-588l-90 -264h-322zM60 370v60h12l354 1014h730l324 -1014h12v-60h-60l-326 1014h-630l-354 -1014h-62zM510 510h549 l-267 671zM511 1643q0 53 33 87t85.5 34t85 -33.5t32.5 -83.5q-5 -61 -38.5 -92t-82.5 -31t-82 33t-33 86zM563 1639q0 -30 18.5 -48.5t45.5 -18.5q64 0 70 69q0 28 -18.5 46.5t-48.5 18.5t-48.5 -18.5t-18.5 -48.5zM586 568l200 489l186 -489h-386zM593 1638q0 40 39 40 q17 0 28 -10.5t11 -26.5q-4 -41 -41 -41q-16 0 -26.5 11t-10.5 27zM660 612h238l-110 322zM831 1647q0 53 33 87t85.5 34t85 -33.5t32.5 -83.5q-5 -61 -38.5 -92t-82.5 -31t-82 33t-33 86zM883 1643q0 -30 18.5 -48.5t45.5 -18.5q64 0 70 69q0 28 -18.5 46.5t-48.5 18.5 t-48.5 -18.5t-18.5 -48.5zM913 1642q0 40 39 40q17 0 28 -10.5t11 -26.5q-4 -41 -41 -41q-16 0 -26.5 11t-10.5 27z" />
<glyph unicode="&#xc5;" horiz-adv-x="1492" d="M60 0v60h370l92 260h508l92 -260h370v-60h-410l-92 260h-428l-92 -260h-410zM60 120v190h128l332 1006h524l339 -1006h109v-190h-321l-111 264h-588l-90 -264h-322zM60 370v60h12l354 1014h730l324 -1014h12v-60h-60l-326 1014h-630l-354 -1014h-62zM510 510h549 l-267 671zM586 568l200 489l186 -489h-386zM589 1650.5q0 86.5 55 142t140 55.5t139.5 -55t54.5 -136.5t-59.5 -140t-140 -58.5t-135 53t-54.5 139.5zM660 612h238l-110 322zM661 1647q0 -53 33 -86t82 -33t82.5 31t38.5 92q0 50 -32.5 83.5t-85 33.5t-85.5 -34t-33 -87z " />
<glyph unicode="&#xc6;" horiz-adv-x="2094" d="M60 0v60h370l87 260h331v-260h1246v-60h-1306v260h-227l-91 -260h-410zM60 120v190h128l336 1014h1404v-190h-773v-382h497v-54h-497v-388h939v-190h-1188v264h-434l-90 -264h-322zM60 370v60h12l354 1014h1606v-430h-768v-166h496v-252h-496v-166h830v-60h-890v284h496 v134h-496v286h768v310h-1496l-356 -1014h-60zM510 510l318 2v708zM586 556l200 489l-2 -489h-198zM644 604h104v258z" />
<glyph unicode="&#xc7;" horiz-adv-x="1484" d="M10 743q0 170 65.5 303.5t181.5 221.5q230 176 587 176h640v-60h-640q-525 -6 -708 -360q-62 -120 -66 -281q-2 -227 102 -379t280 -226t360 -76v-228q44 -4 109 -44t69 -108t-21 -100t-133 -54q173 19 243 104q23 28 27 72q-8 66 -65 98t-147 50v208h590v-60h-526v-112 q107 -20 159 -68t52 -116q0 -92 -101.5 -160.5t-261.5 -68.5q-63 0 -159 8l15 87q42 -12 121 -13q150 -2 150 115q0 38 -39 66t-76.5 28t-64.5 -3l-1 241q-143 -4 -333 79.5t-299.5 250.5t-109.5 409zM128 744q15 291 218 440q98 72 222 104t280 40h636v-192h-452 q-150 -2 -239 -13t-167 -41t-144 -96t-78 -266q12 -164 76 -248t155 -112t178 -38t223 -10h448v-192h-640q-196 0 -358 70t-260 206t-98 348zM465 718q11 168 68 225t122 83t144.5 35.5t232.5 12.5h452v-60h-452q-152 0 -225 -9t-130 -30t-101 -73t-51 -184q5 -128 51 -183 t112 -73q117 -32 344 -32h452v-60h-452q-224 -3 -374 37q-177 48 -193 311zM842 119h22v-271q106 -34 152 -61t70 -83q-6 -36 -27 -62t-67 -56q22 40 26 90q-20 78 -40 98t-136 76v269z" />
<glyph unicode="&#xc8;" horiz-adv-x="1360" d="M60 0v60h1300v-60h-1300zM60 120v190h122v824h-122v190h1240v-190h-880v-386h484v-54h-486v-382l942 -2v-190h-1300zM60 370v704h60v-704h-60zM60 1384v60h1240v-60h-1240zM203 1796h462l176 -318zM408 1742l320 -150l-98 150h-222zM470 370v284h496v134h-496v286h830 v-60h-770v-166h496v-252h-496v-166h830v-60h-890zM514 1718l153 -70l-47 70h-106z" />
<glyph unicode="&#xc9;" horiz-adv-x="1360" d="M60 0v60h1300v-60h-1300zM60 120v190h122v824h-122v190h1240v-190h-880v-386h484v-54h-486v-382l942 -2v-190h-1300zM60 370v704h60v-704h-60zM60 1384v60h1240v-60h-1240zM470 370v284h496v134h-496v286h830v-60h-770v-166h496v-252h-496v-166h830v-60h-890zM673 1478 l176 318h462zM792 1592l310 150h-216zM857 1650l47 70h106z" />
<glyph unicode="&#xca;" horiz-adv-x="1360" d="M60 0v60h1300v-60h-1300zM60 120v190h122v824h-122v190h1240v-190h-880v-386h484v-54h-486v-382l942 -2v-190h-1300zM60 370v704h60v-704h-60zM60 1384v60h1240v-60h-1240zM470 370v284h496v134h-496v286h830v-60h-770v-166h496v-252h-496v-166h830v-60h-890zM473 1475 v59l278 283l279 -283v-62l-277 174zM562 1568l190 128l196 -120l-196 172z" />
<glyph unicode="&#xcb;" horiz-adv-x="1360" d="M60 0v60h1300v-60h-1300zM60 120v190h122v824h-122v190h1240v-190h-880v-386h484v-54h-486v-382l942 -2v-190h-1300zM60 370v704h60v-704h-60zM60 1384v60h1240v-60h-1240zM443 1643q0 53 33 87t85.5 34t85 -33.5t32.5 -83.5q-5 -61 -38.5 -92t-82.5 -31t-82 33t-33 86z M470 370v284h496v134h-496v286h830v-60h-770v-166h496v-252h-496v-166h830v-60h-890zM495 1643q0 -30 18.5 -48.5t45.5 -18.5q64 0 70 69q0 28 -18.5 46.5t-48.5 18.5t-48.5 -18.5t-18.5 -48.5zM525 1640q0 40 39 40q17 0 28 -10.5t11 -26.5q-4 -41 -41 -41q-16 0 -26.5 11 t-10.5 27zM821 1643q0 53 33 87t85.5 34t85 -33.5t32.5 -83.5q-5 -61 -38.5 -92t-82.5 -31t-82 33t-33 86zM871 1645q0 -30 18.5 -48.5t45.5 -18.5q64 0 70 69q0 28 -18.5 46.5t-48.5 18.5t-48.5 -18.5t-18.5 -48.5zM901 1644q0 40 39 40q17 0 28 -10.5t11 -26.5 q-4 -41 -41 -41q-16 0 -26.5 11t-10.5 27z" />
<glyph unicode="&#xcc;" horiz-adv-x="550" d="M26 1796h371l113 -316zM40 0v1444h470v-1444h-470zM100 60h350v1324h-350v-1324zM161 117v1201l227 2v-1200zM168 1746l260 -150l-80 150h-180zM254 1724l119 -70l-37 70h-82z" />
<glyph unicode="&#xcd;" horiz-adv-x="550" d="M26 1480l113 316h371zM40 0v1444h468v-1444h-468zM100 60h350v1324h-350v-1324zM113 1596l243 150h-168zM161 117v1201l227 2v-1200zM163 1654l37 70h82z" />
<glyph unicode="&#xce;" horiz-adv-x="550" d="M40 0v1444h470v-1444h-470zM45 1481v59l228 283l229 -283v-62l-228 174zM100 60h350v1324h-350v-1324zM118 1576l154 128l160 -120l-160 172zM161 117v1201l227 2v-1200z" />
<glyph unicode="&#xcf;" horiz-adv-x="550" d="M3 1643q0 53 33 87t85.5 34t85 -33.5t32.5 -83.5q-5 -61 -38.5 -92t-82.5 -31t-82 33t-33 86zM40 0v1444h470v-1444h-470zM55 1639q0 -30 18.5 -48.5t45.5 -18.5q64 0 70 69q0 28 -18.5 46.5t-48.5 18.5t-48.5 -18.5t-18.5 -48.5zM83 1638q0 40 39 40q17 0 28 -10.5 t11 -26.5q-4 -41 -41 -41q-16 0 -26.5 11t-10.5 27zM100 60h350v1324h-350v-1324zM161 117v1201l227 2v-1200zM315 1643q0 53 33 87t85.5 34t85 -33.5t32.5 -83.5q-5 -61 -38.5 -92t-82.5 -31t-82 33t-33 86zM367 1639q0 -30 18.5 -48.5t45.5 -18.5q64 0 70 69 q0 28 -18.5 46.5t-48.5 18.5t-48.5 -18.5t-18.5 -48.5zM395 1638q0 40 39 40q17 0 28 -10.5t11 -26.5q-4 -41 -41 -41q-16 0 -26.5 11t-10.5 27z" />
<glyph unicode="&#xd0;" horiz-adv-x="1804" d="M-42 542v252h254v650h852q506 0 680 -381q60 -133 60 -346q-22 -386 -212 -553q-195 -171 -552 -164h-828v542h-254zM20 608h252v-548h768q240 6 343 47t171 104t126 186t64 325q-8 194 -29 251t-54 122t-103 133t-195 114t-299 42h-792v-660h-252v-116zM92 650v32h244 v638l721 -3q161 5 275.5 -37t178.5 -103.5t95 -120.5t49.5 -110.5t26.5 -226.5q-7 -182 -59.5 -293.5t-115 -168.5t-157 -93.5t-315.5 -43.5h-699v530h-244zM626 300h341q203 0 304 165q44 72 57 258q-4 168 -51 249t-120 126t-192 45h-339v-451h290v-40h-290v-352zM692 360 v248h280v128h-278v350h273q170 0 251 -148q37 -70 40 -216q-10 -160 -46 -222q-82 -140 -243 -140h-277zM752 418l209 -1q87 3 128 39t61.5 77.5t31.5 189.5q-8 125 -31 178t-65 90.5t-127 39.5h-205v-235h286v-252h-288v-126z" />
<glyph unicode="&#xd1;" horiz-adv-x="1430" d="M60 0v60h410v540h95l430 -540h435v-60h-470l-430 540v-540h-470zM60 120v190h122l-1 824h-121v190h414l418 -538h194v538h344v-190h-120v-824h120v-190h-400l-432 537h-176v-537h-362zM60 370v704h60v-704h-60zM60 1384v60h470l430 -540v540h470v-60h-410v-538h-95 l-420 538h-445zM343 1640q147 270 322 79t323 -51l76 -40q-240 -232 -408 -50t-253 15zM456 1724q64 -4 121 -20t153 -118t210 14q-120 -42 -171 -15t-131 112t-182 27zM1370 370v704h60v-704h-60z" />
<glyph unicode="&#xd2;" horiz-adv-x="1677" d="M10 714q0 358 216 550q215 191 609 191q259 0 447 -85.5t287 -252t99 -403.5t-99 -404q-199 -335 -734 -335q-260 0 -447 85q-378 171 -378 654zM70 715q8 -446 353 -602q172 -78 412 -78q494 0 677 309q92 153 96 370q-8 443 -360 603q-174 79 -383.5 79t-351.5 -45 t-240 -131q-195 -171 -203 -505zM138 714q9 451 406 574q130 41 322 41t351 -71q324 -146 330 -544q-3 -197 -87 -336q-170 -279 -621 -279q-220 0 -378 71q-317 142 -323 544zM203 1796h462l176 -318zM408 1742l320 -150l-98 150h-222zM426 708q0 -175 81 -307t319 -132 q186 0 278 69.5t114.5 158t32.5 211.5q-10 178 -89.5 309.5t-335.5 131.5q-400 0 -400 -441zM486 712q0 380 340 380q216 0 283 -113.5t75 -266.5q-8 -107 -27 -183.5t-96.5 -136t-234.5 -59.5q-202 0 -271 113.5t-69 265.5zM512 1720l153 -70l-47 70h-106zM551 709 q0 -127 56 -221.5t223 -94.5q128 0 192 50t80 113t21 153q-5 127 -60.5 221t-232.5 94q-279 0 -279 -315z" />
<glyph unicode="&#xd3;" horiz-adv-x="1677" d="M10 714q0 358 216 550q215 191 609 191q259 0 447 -85.5t287 -252t99 -403.5t-99 -404q-199 -335 -734 -335q-260 0 -447 85q-378 171 -378 654zM70 715q8 -446 353 -602q172 -78 412 -78q494 0 677 309q92 153 96 370q-8 443 -360 603q-174 79 -383.5 79t-351.5 -45 t-240 -131q-195 -171 -203 -505zM138 714q9 451 406 574q130 41 322 41t351 -71q324 -146 330 -544q-3 -197 -87 -336q-170 -279 -621 -279q-220 0 -378 71q-317 142 -323 544zM426 708q0 -175 81 -307t319 -132q186 0 278 69.5t114.5 158t32.5 211.5q-10 178 -89.5 309.5 t-335.5 131.5q-400 0 -400 -441zM486 712q0 380 340 380q216 0 283 -113.5t75 -266.5q-8 -107 -27 -183.5t-96.5 -136t-234.5 -59.5q-202 0 -271 113.5t-69 265.5zM551 709q0 -127 56 -221.5t223 -94.5q128 0 192 50t80 113t21 153q-5 127 -60.5 221t-232.5 94 q-279 0 -279 -315zM673 1478l176 318h462zM792 1592l310 150h-216zM857 1650l47 70h106z" />
<glyph unicode="&#xd4;" horiz-adv-x="1677" d="M10 714q0 358 216 550q215 191 609 191q259 0 447 -85.5t287 -252t99 -403.5t-99 -404q-199 -335 -734 -335q-260 0 -447 85q-378 171 -378 654zM70 715q8 -446 353 -602q172 -78 412 -78q494 0 677 309q92 153 96 370q-8 443 -360 603q-174 79 -383.5 79t-351.5 -45 t-240 -131q-195 -171 -203 -505zM138 714q9 451 406 574q130 41 322 41t351 -71q324 -146 330 -544q-3 -197 -87 -336q-170 -279 -621 -279q-220 0 -378 71q-317 142 -323 544zM426 708q0 -175 81 -307t319 -132q186 0 278 69.5t114.5 158t32.5 211.5q-10 178 -89.5 309.5 t-335.5 131.5q-400 0 -400 -441zM486 712q0 380 340 380q216 0 283 -113.5t75 -266.5q-8 -107 -27 -183.5t-96.5 -136t-234.5 -59.5q-202 0 -271 113.5t-69 265.5zM537 1476v62l287 300l290 -300v-66l-287 185zM551 709q0 -127 56 -221.5t223 -94.5q128 0 192 50t80 113 t21 153q-5 127 -60.5 221t-232.5 94q-279 0 -279 -315zM634 1576l190 137l196 -127l-196 183z" />
<glyph unicode="&#xd5;" horiz-adv-x="1677" d="M10 714q0 358 216 550q215 191 609 191q259 0 447 -85.5t287 -252t99 -403.5t-99 -404q-199 -335 -734 -335q-260 0 -447 85q-378 171 -378 654zM70 715q8 -446 353 -602q172 -78 412 -78q494 0 677 309q92 153 96 370q-8 443 -360 603q-174 79 -383.5 79t-351.5 -45 t-240 -131q-195 -171 -203 -505zM138 714q9 451 406 574q130 41 322 41t351 -71q324 -146 330 -544q-3 -197 -87 -336q-170 -279 -621 -279q-220 0 -378 71q-317 142 -323 544zM426 708q0 -175 81 -307t319 -132q186 0 278 69.5t114.5 158t32.5 211.5q-10 178 -89.5 309.5 t-335.5 131.5q-400 0 -400 -441zM475 1640q147 270 322 79t323 -51l76 -40q-240 -232 -408 -50t-253 15zM486 712q0 380 340 380q216 0 283 -113.5t75 -266.5q-8 -107 -27 -183.5t-96.5 -136t-234.5 -59.5q-202 0 -271 113.5t-69 265.5zM551 709q0 -127 56 -221.5t223 -94.5 q128 0 192 50t80 113t21 153q-5 127 -60.5 221t-232.5 94q-279 0 -279 -315zM592 1720q64 -4 121 -20t153 -118t210 14q-120 -42 -171 -15t-131 112t-182 27z" />
<glyph unicode="&#xd6;" horiz-adv-x="1677" d="M10 714q0 358 216 550q215 191 609 191q259 0 447 -85.5t287 -252t99 -403.5t-99 -404q-199 -335 -734 -335q-260 0 -447 85q-378 171 -378 654zM70 715q8 -446 353 -602q172 -78 412 -78q494 0 677 309q92 153 96 370q-8 443 -360 603q-174 79 -383.5 79t-351.5 -45 t-240 -131q-195 -171 -203 -505zM138 714q9 451 406 574q130 41 322 41t351 -71q324 -146 330 -544q-3 -197 -87 -336q-170 -279 -621 -279q-220 0 -378 71q-317 142 -323 544zM426 708q0 -175 81 -307t319 -132q186 0 278 69.5t114.5 158t32.5 211.5q-10 178 -89.5 309.5 t-335.5 131.5q-400 0 -400 -441zM443 1643q0 53 33 87t85.5 34t85 -33.5t32.5 -83.5q-5 -61 -38.5 -92t-82.5 -31t-82 33t-33 86zM486 712q0 380 340 380q216 0 283 -113.5t75 -266.5q-8 -107 -27 -183.5t-96.5 -136t-234.5 -59.5q-202 0 -271 113.5t-69 265.5zM495 1643 q0 -30 18.5 -48.5t45.5 -18.5q64 0 70 69q0 28 -18.5 46.5t-48.5 18.5t-48.5 -18.5t-18.5 -48.5zM525 1640q0 40 39 40q17 0 28 -10.5t11 -26.5q-4 -41 -41 -41q-16 0 -26.5 11t-10.5 27zM551 709q0 -127 56 -221.5t223 -94.5q128 0 192 50t80 113t21 153q-5 127 -60.5 221 t-232.5 94q-279 0 -279 -315zM1003 1643q0 53 33 87t85.5 34t85 -33.5t32.5 -83.5q-5 -61 -38.5 -92t-82.5 -31t-82 33t-33 86zM1055 1639q0 -30 18.5 -48.5t45.5 -18.5q64 0 70 69q0 28 -18.5 46.5t-48.5 18.5t-48.5 -18.5t-18.5 -48.5zM1083 1636q0 40 39 40 q17 0 28 -10.5t11 -26.5q-4 -41 -41 -41q-16 0 -26.5 11t-10.5 27z" />
<glyph unicode="&#xd8;" horiz-adv-x="1677" d="M2 140l134 108q-126 227 -126 466q0 358 216 550q215 191 609 191q259 0 410 -71.5t201 -109.5l110 88l112 -150l-88 -78q88 -183 88 -420t-99 -404q-199 -335 -734 -335q-260 0 -555 149l-168 -132zM68 715q4 -220 134 -481l-122 -98l44 -62l154 122q315 -161 555 -161 q494 0 677 309q92 153 96 370q-4 218 -110 418l102 86l-52 72l-104 -86q-23 34 -196.5 113t-383 79t-351.5 -45t-240 -131q-195 -171 -203 -505zM120 132l14 -19l183 147l-16 16zM138 714q9 451 406 574q130 41 322 41t351 -71q324 -146 330 -544q-3 -197 -87 -336 q-170 -279 -621 -279q-220 0 -378 71q-317 142 -323 544zM426 708q0 -175 81 -307t319 -132q186 0 278 69.5t114.5 158t32.5 211.5q-10 178 -89.5 309.5t-335.5 131.5q-400 0 -400 -441zM486 444l694 532l14 -26l-690 -536zM486 712q4 -154 42 -168l566 436 q-50 112 -268 112q-340 0 -340 -380zM552 710q0 314 278 314q174 0 178 -42l-450 -340zM566 424q58 -82 260 -90q156 0 234 59t97 136t27 183q-8 140 -30 156zM678 432l436 334l6 -56q-2 -92 -18 -155t-80 -112t-200 -49t-144 38zM1404 1128l130 108l14 -20l-128 -106z" />
<glyph unicode="&#xd9;" horiz-adv-x="1494" d="M60 596v478h60v-478q10 -178 55 -267t136 -157t219 -101t254 -37q150 6 274 45t199 104t124 154t53 260v477h60v-477q-3 -180 -59.5 -287.5t-142.5 -179.5q-178 -148 -508 -156q-133 3 -270.5 36.5t-240 105.5t-158 185t-55.5 295zM60 1134v190h357v-732q1 -176 78 -276 t283 -102q196 12 279 109t81 269v732h356v-190h-113v-537q-8 -161 -48.5 -236.5t-105 -130.5t-183 -95.5t-258.5 -46.5q-118 4 -238.5 35t-201.5 95t-118 131.5t-46 246.5v538h-122zM60 1384v60h470v-854q-6 -146 56 -203t194 -61q106 2 177 62t67 202v854h470v-60h-410 v-794q6 -152 -66 -231t-238 -93q-174 6 -244 84t-66 240v794h-410zM279 1796h462l176 -318zM476 1742l320 -150l-98 150h-222zM578 1720l153 -70l-47 70h-106z" />
<glyph unicode="&#xda;" horiz-adv-x="1494" d="M60 596v478h60v-478q10 -178 55 -267t136 -157t219 -101t254 -37q150 6 274 45t199 104t124 154t53 260v477h60v-477q-3 -180 -59.5 -287.5t-142.5 -179.5q-178 -148 -508 -156q-133 3 -270.5 36.5t-240 105.5t-158 185t-55.5 295zM60 1134v190h357v-732q1 -176 78 -276 t283 -102q196 12 279 109t81 269v732h356v-190h-113v-537q-8 -161 -48.5 -236.5t-105 -130.5t-183 -95.5t-258.5 -46.5q-118 4 -238.5 35t-201.5 95t-118 131.5t-46 246.5v538h-122zM60 1384v60h470v-854q-6 -146 56 -203t194 -61q106 2 177 62t67 202v854h470v-60h-410 v-794q6 -152 -66 -231t-238 -93q-174 6 -244 84t-66 240v794h-410zM709 1478l176 318h462zM836 1592l310 150h-216zM905 1652l47 70h106z" />
<glyph unicode="&#xdb;" horiz-adv-x="1494" d="M60 596v478h60v-478q10 -178 55 -267t136 -157t219 -101t254 -37q150 6 274 45t199 104t124 154t53 260v477h60v-477q-3 -180 -59.5 -287.5t-142.5 -179.5q-178 -148 -508 -156q-133 3 -270.5 36.5t-240 105.5t-158 185t-55.5 295zM60 1134v190h357v-732q1 -176 78 -276 t283 -102q196 12 279 109t81 269v732h356v-190h-113v-537q-8 -161 -48.5 -236.5t-105 -130.5t-183 -95.5t-258.5 -46.5q-118 4 -238.5 35t-201.5 95t-118 131.5t-46 246.5v538h-122zM60 1384v60h470v-854q-6 -146 56 -203t194 -61q106 2 177 62t67 202v854h470v-60h-410 v-794q6 -152 -66 -231t-238 -93q-174 6 -244 84t-66 240v794h-410zM489 1476v62l287 300l290 -300v-66l-287 185zM586 1576l190 137l196 -127l-196 183z" />
<glyph unicode="&#xdc;" horiz-adv-x="1494" d="M60 596v478h60v-478q10 -178 55 -267t136 -157t219 -101t254 -37q150 6 274 45t199 104t124 154t53 260v477h60v-477q-3 -180 -59.5 -287.5t-142.5 -179.5q-178 -148 -508 -156q-133 3 -270.5 36.5t-240 105.5t-158 185t-55.5 295zM60 1134v190h357v-732q1 -176 78 -276 t283 -102q196 12 279 109t81 269v732h356v-190h-113v-537q-8 -161 -48.5 -236.5t-105 -130.5t-183 -95.5t-258.5 -46.5q-118 4 -238.5 35t-201.5 95t-118 131.5t-46 246.5v538h-122zM60 1384v60h470v-854q-6 -146 56 -203t194 -61q106 2 177 62t67 202v854h470v-60h-410 v-794q6 -152 -66 -231t-238 -93q-174 6 -244 84t-66 240v794h-410zM427 1643q0 53 33 87t85.5 34t85 -33.5t32.5 -83.5q-5 -61 -38.5 -92t-82.5 -31t-82 33t-33 86zM479 1639q0 -30 18.5 -48.5t45.5 -18.5q64 0 70 69q0 28 -18.5 46.5t-48.5 18.5t-48.5 -18.5t-18.5 -48.5z M509 1638q0 40 39 40q17 0 28 -10.5t11 -26.5q-4 -41 -41 -41q-16 0 -26.5 11t-10.5 27zM903 1639q0 53 33 87t85.5 34t85 -33.5t32.5 -83.5q-5 -61 -38.5 -92t-82.5 -31t-82 33t-33 86zM955 1635q0 -30 18.5 -48.5t45.5 -18.5q64 0 70 69q0 28 -18.5 46.5t-48.5 18.5 t-48.5 -18.5t-18.5 -48.5zM985 1632q0 40 39 40q17 0 28 -10.5t11 -26.5q-4 -41 -41 -41q-16 0 -26.5 11t-10.5 27z" />
<glyph unicode="&#xdd;" horiz-adv-x="1264" d="M60 1014v60h60l368 -526v-488h352v488l364 526h60v-60h-26l-340 -484v-530h-472v530l-340 484h-26zM60 1134v190h242l304 -444h120l302 444h236v-190h-82l-396 -570v-448h-226v444l-401 574h-99zM60 1384v60h306l294 -446l298 446h306v-60h-266l-303 -446h-65l-296 446 h-274zM597 1478l176 318h462zM720 1592l310 150h-216zM785 1648l47 70h106z" />
<glyph unicode="&#xde;" horiz-adv-x="1394" d="M60 0v60h410v272h302q408 -5 515 211q35 71 45 187q-10 122 -45 193t-98 115t-167 71t-552 19v256h-410v60h470v-253q400 1 509 -27t184 -79q168 -114 168 -356q-16 -245 -172 -353q-158 -109 -449 -105l-240 1v-272h-470zM60 120v190h122v824h-122v190h353v-239h56 q435 3 531 -23t150 -64t88.5 -96t40.5 -174q-7 -108 -34.5 -165t-78.5 -96q-112 -87 -394 -87h-356v-260h-356zM60 370v704h60v-704h-60zM412 474h333q189 0 289 92q48 44 55.5 148t-52 157.5t-127 72t-170.5 18.5h-328v-488zM465 522v388h276q87 0 144 -15t106.5 -58 t43.5 -125.5t-47 -117.5q-84 -72 -243 -72h-280zM518 590l223 -1q131 0 199 51q30 22 39 79q-3 53 -33 77q-66 53 -207 53h-221v-259z" />
<glyph unicode="&#xdf;" horiz-adv-x="1628" d="M60 -296v1740h985q237 -2 360.5 -82t149.5 -268q9 -144 -61 -226t-231 -135v-4q157 -20 259 -119q95 -94 95 -211q0 -171 -87.5 -259t-225 -115t-333.5 -25h-287v292h195q83 -3 145 36t65 99t-53.5 96t-156.5 36l-235 1v316l264 -1q29 0 61 30.5t34 81.5q-4 59 -38.5 83 t-57.5 24h-349v-1390h-498zM120 -236h378l-1 1390h411q32 0 88.5 -41t66.5 -126q-3 -73 -56 -126t-99 -46l-204 1v-196l175 -1q118 4 196.5 -51t70.5 -142.5t-87.5 -141t-180.5 -52.5h-132v-172h225q193 -4 323 22q271 54 263 317q0 98 -82 178q-36 35 -93 63.5t-190 79.5 v24q172 66 242.5 139t60.5 211q-22 158 -129 222.5t-321 67.5h-925v-1620zM180 -172v1496h864q184 -8 274 -56t118 -172q0 -120 -42 -176t-270 -160v-48q184 -72 228 -104t84 -74t68 -134q4 -120 -50 -180t-168 -82t-322 -26h-176v72h88q128 0 222 58t102 186 q-12 116 -92 176t-216 60h-132v104h144q84 4 144 64t60 160q-4 100 -64 154t-136 62h-460v-1380h-268z" />
<glyph unicode="&#xe0;" horiz-adv-x="1615" d="M0 0l475 1444h717l483 -1444h-546l-91 260h-429l-91 -260h-518zM84 60h394l93 260h515l94 -260h413l-440 1324h-628zM184 132l396 1188h524l400 -1188h-276l-108 256h-588l-96 -256h-252zM307 1796h462l176 -318zM504 1742l320 -150l-98 150h-222zM558 510h549l-267 671z M604 1720l153 -70l-47 70h-106zM638 568l200 489l186 -489h-386zM708 612h238l-110 322z" />
<glyph unicode="&#xe1;" horiz-adv-x="1615" d="M0 0l475 1444h717l483 -1444h-546l-91 260h-429l-91 -260h-518zM84 60h394l93 260h515l94 -260h413l-440 1324h-628zM184 132l396 1188h524l400 -1188h-276l-108 256h-588l-96 -256h-252zM558 510h549l-267 671zM638 568l200 489l186 -489h-386zM708 612h238l-110 322z M745 1478l176 318h462zM864 1592l310 150h-216zM931 1650l47 70h106z" />
<glyph unicode="&#xe2;" horiz-adv-x="1615" d="M0 0l475 1444h717l483 -1444h-546l-91 260h-429l-91 -260h-518zM84 60h394l93 260h515l94 -260h413l-440 1324h-628zM184 132l396 1188h524l400 -1188h-276l-108 256h-588l-96 -256h-252zM557 1475v59l278 283l279 -283v-62l-277 174zM558 510h549l-267 671zM638 568 l200 489l186 -489h-386zM642 1568l190 128l196 -120l-196 172zM708 612h238l-110 322z" />
<glyph unicode="&#xe3;" horiz-adv-x="1615" d="M0 0l475 1444h717l483 -1444h-546l-91 260h-429l-91 -260h-518zM84 60h394l93 260h515l94 -260h413l-440 1324h-628zM184 132l396 1188h524l400 -1188h-276l-108 256h-588l-96 -256h-252zM487 1648q147 270 322 79t323 -51l76 -40q-240 -232 -408 -50t-253 15zM558 510 h549l-267 671zM604 1724q64 -4 121 -20t153 -118t210 14q-120 -42 -171 -15t-131 112t-182 27zM638 568l200 489l186 -489h-386zM708 612h238l-110 322z" />
<glyph unicode="&#xe4;" horiz-adv-x="1615" d="M0 0l475 1444h717l483 -1444h-546l-91 260h-429l-91 -260h-518zM84 60h394l93 260h515l94 -260h413l-440 1324h-628zM184 132l396 1188h524l400 -1188h-276l-108 256h-588l-96 -256h-252zM551 1643q0 53 33 87t85.5 34t85 -33.5t32.5 -83.5q-5 -61 -38.5 -92t-82.5 -31 t-82 33t-33 86zM558 510h549l-267 671zM603 1639q0 -30 18.5 -48.5t45.5 -18.5q64 0 70 69q0 28 -18.5 46.5t-48.5 18.5t-48.5 -18.5t-18.5 -48.5zM631 1638q0 40 39 40q17 0 28 -10.5t11 -26.5q-4 -41 -41 -41q-16 0 -26.5 11t-10.5 27zM638 568l200 489l186 -489h-386z M708 612h238l-110 322zM881 1643q0 53 33 87t85.5 34t85 -33.5t32.5 -83.5q-5 -61 -38.5 -92t-82.5 -31t-82 33t-33 86zM935 1639q0 -30 18.5 -48.5t45.5 -18.5q64 0 70 69q0 28 -18.5 46.5t-48.5 18.5t-48.5 -18.5t-18.5 -48.5zM965 1638q0 40 39 40q17 0 28 -10.5 t11 -26.5q-4 -41 -41 -41q-16 0 -26.5 11t-10.5 27z" />
<glyph unicode="&#xe5;" horiz-adv-x="1615" d="M0 0l475 1444h717l483 -1444h-546l-91 260h-429l-91 -260h-518zM84 60h394l93 260h515l94 -260h413l-440 1324h-628zM184 132l396 1188h524l400 -1188h-276l-108 256h-588l-96 -256h-252zM558 510h549l-267 671zM637 1650.5q0 86.5 55 142t140 55.5t139.5 -55 t54.5 -136.5t-59.5 -140t-140 -58.5t-135 53t-54.5 139.5zM638 568l200 489l186 -489h-386zM708 612h238l-110 322zM717 1647q0 -53 33 -86t82 -33t82.5 31t38.5 92q0 50 -32.5 83.5t-85 33.5t-85.5 -34t-33 -87z" />
<glyph unicode="&#xe6;" horiz-adv-x="2118" d="M-24 0l475 1444h1605v-430h-768v-166h496v-252h-496v-166h830v-430h-1306v260h-227l-91 -260h-518zM54 60h394l93 260h331v-260h1186v310h-830v284h496v134h-496v286h768v310h-1501zM136 120l404 1204h1404v-190h-773v-382h497v-54h-497v-388l833 2v-192h-1082v264h-434 l-90 -264h-262zM570 510l318 2v708zM654 556l200 489l-2 -489h-198zM716 600h104v258z" />
<glyph unicode="&#xe7;" horiz-adv-x="1484" d="M10 743q0 170 65.5 303.5t181.5 221.5q230 176 587 176h640v-430h-452q-152 0 -225 -9t-130 -30t-101 -73t-51 -184q5 -128 51 -183t112 -73q117 -32 344 -32h452v-430h-526v-112q107 -20 159 -68t52 -116q0 -92 -101.5 -160.5t-261.5 -68.5q-63 0 -159 8l15 87 q42 -12 121 -13q150 -2 150 115q0 38 -39 66t-76.5 28t-64.5 -3l-1 241q-143 -4 -333 79.5t-299.5 250.5t-109.5 409zM70 743q-2 -227 102 -379t280 -226t360 -76v-228q44 -4 109 -44t69 -108t-21 -100t-133 -54q173 19 243 104q23 28 27 72q-8 66 -65 98t-147 50v208h530 v310h-392q-224 -3 -374 37q-177 48 -193 311q11 168 68 225t122 83t144.5 35.5t232.5 12.5h392v310h-580q-525 -6 -708 -360q-62 -120 -66 -281zM128 744q15 291 218 440q98 72 222 104t280 40h530v-192h-346q-150 -2 -239 -13t-167 -41t-144 -96t-78 -266q12 -164 76 -248 t155 -112t178 -38t223 -10h336v-192h-528q-196 0 -358 70t-260 206t-98 348zM842 119h22v-271q106 -34 152 -61t70 -83q-6 -36 -27 -62t-67 -56q22 40 26 90q-20 78 -40 98t-136 76v269z" />
<glyph unicode="&#xe8;" horiz-adv-x="1360" d="M60 0v1444h1238v-430h-768v-166h496v-252h-496v-166h830v-430h-1300zM120 60h1180v310h-830v284h496v134h-496v286h768v310h-1118v-1324zM180 116v1208h1000v-188h-760v-388h484v-54h-486l-2 -386h824v-192h-1060zM203 1796h462l176 -318zM408 1742l320 -150l-98 150 h-222zM514 1718l153 -70l-47 70h-106z" />
<glyph unicode="&#xe9;" horiz-adv-x="1360" d="M60 0v1444h1238v-430h-768v-166h496v-252h-496v-166h830v-430h-1300zM120 60h1180v310h-830v284h496v134h-496v286h768v310h-1118v-1324zM180 116v1208h1000v-188h-760v-388h484v-54h-486l-2 -386h824v-192h-1060zM673 1478l176 318h462zM792 1592l310 150h-216z M857 1650l47 70h106z" />
<glyph unicode="&#xea;" horiz-adv-x="1360" d="M60 0v1444h1238v-430h-768v-166h496v-252h-496v-166h830v-430h-1300zM120 60h1180v310h-830v284h496v134h-496v286h768v310h-1118v-1324zM180 116v1208h1000v-188h-760v-388h484v-54h-486l-2 -386h824v-192h-1060zM473 1475v59l278 283l279 -283v-62l-277 174zM562 1568 l190 128l196 -120l-196 172z" />
<glyph unicode="&#xeb;" horiz-adv-x="1360" d="M60 0v1444h1238v-430h-768v-166h496v-252h-496v-166h830v-430h-1300zM120 60h1180v310h-830v284h496v134h-496v286h768v310h-1118v-1324zM180 116v1208h1000v-188h-760v-388h484v-54h-486l-2 -386h824v-192h-1060zM443 1643q0 53 33 87t85.5 34t85 -33.5t32.5 -83.5 q-5 -61 -38.5 -92t-82.5 -31t-82 33t-33 86zM495 1643q0 -30 18.5 -48.5t45.5 -18.5q64 0 70 69q0 28 -18.5 46.5t-48.5 18.5t-48.5 -18.5t-18.5 -48.5zM525 1640q0 40 39 40q17 0 28 -10.5t11 -26.5q-4 -41 -41 -41q-16 0 -26.5 11t-10.5 27zM821 1643q0 53 33 87t85.5 34 t85 -33.5t32.5 -83.5q-5 -61 -38.5 -92t-82.5 -31t-82 33t-33 86zM873 1645q0 -30 18.5 -48.5t45.5 -18.5q64 0 70 69q0 28 -18.5 46.5t-48.5 18.5t-48.5 -18.5t-18.5 -48.5zM901 1644q0 40 39 40q17 0 28 -10.5t11 -26.5q-4 -41 -41 -41q-16 0 -26.5 11t-10.5 27z" />
<glyph unicode="&#xec;" horiz-adv-x="550" d="M26 1796h371l113 -316zM40 0v1444h470v-1444h-470zM100 60h350v1324h-350v-1324zM161 117v1201l227 2v-1200zM168 1746l260 -150l-80 150h-180zM254 1724l119 -70l-37 70h-82z" />
<glyph unicode="&#xed;" horiz-adv-x="550" d="M26 1480l113 316h371zM40 0v1444h468v-1444h-468zM100 60h350v1324h-350v-1324zM113 1596l243 150h-168zM161 117v1201l227 2v-1200zM163 1654l37 70h82z" />
<glyph unicode="&#xee;" horiz-adv-x="550" d="M40 0v1444h470v-1444h-470zM45 1481v59l228 283l229 -283v-62l-228 174zM100 60h350v1324h-350v-1324zM118 1576l154 128l160 -120l-160 172zM161 117v1201l227 2v-1200z" />
<glyph unicode="&#xef;" horiz-adv-x="550" d="M3 1643q0 53 33 87t85.5 34t85 -33.5t32.5 -83.5q-5 -61 -38.5 -92t-82.5 -31t-82 33t-33 86zM40 0v1444h470v-1444h-470zM55 1639q0 -30 18.5 -48.5t45.5 -18.5q64 0 70 69q0 28 -18.5 46.5t-48.5 18.5t-48.5 -18.5t-18.5 -48.5zM83 1638q0 40 39 40q17 0 28 -10.5 t11 -26.5q-4 -41 -41 -41q-16 0 -26.5 11t-10.5 27zM100 60h350v1324h-350v-1324zM161 117v1201l227 2v-1200zM315 1643q0 53 33 87t85.5 34t85 -33.5t32.5 -83.5q-5 -61 -38.5 -92t-82.5 -31t-82 33t-33 86zM367 1639q0 -30 18.5 -48.5t45.5 -18.5q64 0 70 69 q0 28 -18.5 46.5t-48.5 18.5t-48.5 -18.5t-18.5 -48.5zM395 1638q0 40 39 40q17 0 28 -10.5t11 -26.5q-4 -41 -41 -41q-16 0 -26.5 11t-10.5 27z" />
<glyph unicode="&#xf0;" horiz-adv-x="1804" d="M-42 542v252h254v650h852q506 0 680 -381q60 -133 60 -346q-22 -386 -212 -553q-195 -171 -552 -164h-828v542h-254zM20 608h252v-548h768q240 6 343 47t171 104t126 186t64 325q-8 194 -29 251t-54 122t-103 133t-195 114t-299 42h-792v-662l-252 2v-116zM92 650v32h244 v638l721 -3q161 5 275.5 -37t178.5 -103.5t95 -120.5t49.5 -110.5t26.5 -226.5q-7 -182 -59.5 -293.5t-115 -168.5t-157 -93.5t-315.5 -43.5h-699v530h-244zM626 300h341q203 0 304 165q44 72 57 258q-4 168 -51 249t-120 126t-192 45h-339v-451h290v-40h-290v-352zM692 608 h280v128h-280l2 350h273q170 0 251 -148q37 -70 40 -216q-10 -160 -46 -222q-82 -140 -243 -140h-275zM752 544l2 -127h207q87 3 128 39t61.5 77.5t31.5 189.5q-8 125 -31 178t-65 90.5t-127 39.5h-205l-2 -235h288v-252h-288z" />
<glyph unicode="&#xf1;" horiz-adv-x="1430" d="M60 0v1444h470l430 -540v540h470v-1444h-470l-430 540v-540h-470zM120 60h350v540h95l430 -540h375v1324h-350v-538h-95l-420 538h-385v-1324zM180 120v1200h294l418 -534h194v532h225v-1200h-282l-431 539h-176l-2 -537h-240zM343 1640q147 270 322 79t323 -51l76 -40 q-240 -232 -408 -50t-253 15zM456 1724q64 -4 121 -20t153 -118t210 14q-120 -42 -171 -15t-131 112t-182 27z" />
<glyph unicode="&#xf2;" horiz-adv-x="1677" d="M10 714q0 358 216 550q215 191 609 191q259 0 447 -85.5t287 -252t99 -403.5t-99 -404q-199 -335 -734 -335q-260 0 -447 85q-378 171 -378 654zM70 715q8 -446 353 -602q172 -78 412 -78q494 0 677 309q92 153 96 370q-8 443 -360 603q-174 79 -383.5 79t-351.5 -45 t-240 -131q-195 -171 -203 -505zM138 714q9 451 406 574q130 41 322 41t351 -71q324 -146 330 -544q-3 -197 -87 -336q-170 -279 -621 -279q-220 0 -378 71q-317 142 -323 544zM203 1796h462l176 -318zM408 1742l320 -150l-98 150h-222zM426 708q0 -175 81 -307t319 -132 q186 0 278 69.5t114.5 158t32.5 211.5q-10 178 -89.5 309.5t-335.5 131.5q-400 0 -400 -441zM486 712q0 380 340 380q216 0 283 -113.5t75 -266.5q-8 -107 -27 -183.5t-96.5 -136t-234.5 -59.5q-202 0 -271 113.5t-69 265.5zM512 1720l153 -70l-47 70h-106zM551 709 q0 -127 56 -221.5t223 -94.5q128 0 192 50t80 113t21 153q-5 127 -60.5 221t-232.5 94q-279 0 -279 -315z" />
<glyph unicode="&#xf3;" horiz-adv-x="1677" d="M10 714q0 358 216 550q215 191 609 191q259 0 447 -85.5t287 -252t99 -403.5t-99 -404q-199 -335 -734 -335q-260 0 -447 85q-378 171 -378 654zM70 715q8 -446 353 -602q172 -78 412 -78q494 0 677 309q92 153 96 370q-8 443 -360 603q-174 79 -383.5 79t-351.5 -45 t-240 -131q-195 -171 -203 -505zM138 714q9 451 406 574q130 41 322 41t351 -71q324 -146 330 -544q-3 -197 -87 -336q-170 -279 -621 -279q-220 0 -378 71q-317 142 -323 544zM426 708q0 -175 81 -307t319 -132q186 0 278 69.5t114.5 158t32.5 211.5q-10 178 -89.5 309.5 t-335.5 131.5q-400 0 -400 -441zM486 712q0 380 340 380q216 0 283 -113.5t75 -266.5q-8 -107 -27 -183.5t-96.5 -136t-234.5 -59.5q-202 0 -271 113.5t-69 265.5zM551 709q0 -127 56 -221.5t223 -94.5q128 0 192 50t80 113t21 153q-5 127 -60.5 221t-232.5 94 q-279 0 -279 -315zM673 1478l176 318h462zM792 1592l310 150h-216zM857 1650l47 70h106z" />
<glyph unicode="&#xf4;" horiz-adv-x="1677" d="M10 714q0 358 216 550q215 191 609 191q259 0 447 -85.5t287 -252t99 -403.5t-99 -404q-199 -335 -734 -335q-260 0 -447 85q-378 171 -378 654zM70 715q8 -446 353 -602q172 -78 412 -78q494 0 677 309q92 153 96 370q-8 443 -360 603q-174 79 -383.5 79t-351.5 -45 t-240 -131q-195 -171 -203 -505zM138 714q9 451 406 574q130 41 322 41t351 -71q324 -146 330 -544q-3 -197 -87 -336q-170 -279 -621 -279q-220 0 -378 71q-317 142 -323 544zM426 708q0 -175 81 -307t319 -132q186 0 278 69.5t114.5 158t32.5 211.5q-10 178 -89.5 309.5 t-335.5 131.5q-400 0 -400 -441zM486 712q0 380 340 380q216 0 283 -113.5t75 -266.5q-8 -107 -27 -183.5t-96.5 -136t-234.5 -59.5q-202 0 -271 113.5t-69 265.5zM537 1476v62l287 300l290 -300v-66l-287 185zM551 709q0 -127 56 -221.5t223 -94.5q128 0 192 50t80 113 t21 153q-5 127 -60.5 221t-232.5 94q-279 0 -279 -315zM634 1576l190 137l196 -127l-196 183z" />
<glyph unicode="&#xf5;" horiz-adv-x="1677" d="M10 714q0 358 216 550q215 191 609 191q259 0 447 -85.5t287 -252t99 -403.5t-99 -404q-199 -335 -734 -335q-260 0 -447 85q-378 171 -378 654zM70 715q8 -446 353 -602q172 -78 412 -78q494 0 677 309q92 153 96 370q-8 443 -360 603q-174 79 -383.5 79t-351.5 -45 t-240 -131q-195 -171 -203 -505zM138 714q9 451 406 574q130 41 322 41t351 -71q324 -146 330 -544q-3 -197 -87 -336q-170 -279 -621 -279q-220 0 -378 71q-317 142 -323 544zM426 708q0 -175 81 -307t319 -132q186 0 278 69.5t114.5 158t32.5 211.5q-10 178 -89.5 309.5 t-335.5 131.5q-400 0 -400 -441zM475 1640q147 270 322 79t323 -51l76 -40q-240 -232 -408 -50t-253 15zM486 712q0 380 340 380q216 0 283 -113.5t75 -266.5q-8 -107 -27 -183.5t-96.5 -136t-234.5 -59.5q-202 0 -271 113.5t-69 265.5zM551 709q0 -127 56 -221.5t223 -94.5 q128 0 192 50t80 113t21 153q-5 127 -60.5 221t-232.5 94q-279 0 -279 -315zM592 1720q64 -4 121 -20t153 -118t210 14q-120 -42 -171 -15t-131 112t-182 27z" />
<glyph unicode="&#xf6;" horiz-adv-x="1677" d="M10 714q0 358 216 550q215 191 609 191q259 0 447 -85.5t287 -252t99 -403.5t-99 -404q-199 -335 -734 -335q-260 0 -447 85q-378 171 -378 654zM70 715q8 -446 353 -602q172 -78 412 -78q494 0 677 309q92 153 96 370q-8 443 -360 603q-174 79 -383.5 79t-351.5 -45 t-240 -131q-195 -171 -203 -505zM138 714q9 451 406 574q130 41 322 41t351 -71q324 -146 330 -544q-3 -197 -87 -336q-170 -279 -621 -279q-220 0 -378 71q-317 142 -323 544zM426 708q0 -175 81 -307t319 -132q186 0 278 69.5t114.5 158t32.5 211.5q-10 178 -89.5 309.5 t-335.5 131.5q-400 0 -400 -441zM443 1643q0 53 33 87t85.5 34t85 -33.5t32.5 -83.5q-5 -61 -38.5 -92t-82.5 -31t-82 33t-33 86zM486 712q0 380 340 380q216 0 283 -113.5t75 -266.5q-8 -107 -27 -183.5t-96.5 -136t-234.5 -59.5q-202 0 -271 113.5t-69 265.5zM495 1643 q0 -30 18.5 -48.5t45.5 -18.5q64 0 70 69q0 28 -18.5 46.5t-48.5 18.5t-48.5 -18.5t-18.5 -48.5zM525 1640q0 40 39 40q17 0 28 -10.5t11 -26.5q-4 -41 -41 -41q-16 0 -26.5 11t-10.5 27zM551 709q0 -127 56 -221.5t223 -94.5q128 0 192 50t80 113t21 153q-5 127 -60.5 221 t-232.5 94q-279 0 -279 -315zM1003 1643q0 53 33 87t85.5 34t85 -33.5t32.5 -83.5q-5 -61 -38.5 -92t-82.5 -31t-82 33t-33 86zM1055 1639q0 -30 18.5 -48.5t45.5 -18.5q64 0 70 69q0 28 -18.5 46.5t-48.5 18.5t-48.5 -18.5t-18.5 -48.5zM1083 1636q0 40 39 40 q17 0 28 -10.5t11 -26.5q-4 -41 -41 -41q-16 0 -26.5 11t-10.5 27z" />
<glyph unicode="&#xf8;" horiz-adv-x="1677" d="M2 140l134 108q-126 227 -126 466q0 358 216 550q215 191 609 191q259 0 410 -71.5t201 -109.5l110 88l112 -150l-88 -78q88 -183 88 -420t-99 -404q-199 -335 -734 -335q-260 0 -555 149l-168 -132zM68 715q4 -220 134 -481l-122 -98l44 -62l154 122q315 -161 555 -161 q494 0 677 309q92 153 96 370q-4 218 -110 418l102 86l-52 72l-104 -86q-23 34 -196.5 113t-383 79t-351.5 -45t-240 -131q-195 -171 -203 -505zM120 132l14 -19l183 147l-16 16zM138 714q9 451 406 574q130 41 322 41t351 -71q324 -146 330 -544q-3 -197 -87 -336 q-170 -279 -621 -279q-220 0 -378 71q-317 142 -323 544zM426 708q0 -175 81 -307t319 -132q186 0 278 69.5t114.5 158t32.5 211.5q-10 178 -89.5 309.5t-335.5 131.5q-400 0 -400 -441zM486 444l694 532l14 -26l-690 -536zM486 712q4 -154 42 -168l566 436 q-50 112 -268 112q-340 0 -340 -380zM552 710q0 314 278 314q174 0 178 -42l-450 -340zM566 424q58 -82 260 -90q156 0 234 59t97 136t27 183q-8 140 -30 156zM678 432l436 334l6 -56q-2 -92 -18 -155t-80 -112t-200 -49t-144 38zM1404 1128l130 108l14 -20l-128 -106z" />
<glyph unicode="&#xf9;" horiz-adv-x="1494" d="M60 596v848h470v-854q-6 -146 56 -203t194 -61q106 2 177 62t67 202v854h470v-847q-3 -180 -59.5 -287.5t-142.5 -179.5q-178 -148 -508 -156q-133 3 -270.5 36.5t-240 105.5t-158 185t-55.5 295zM120 596q10 -178 55 -267t136 -157t219 -101t254 -37q150 6 274 45 t199 104t124 154t53 260v787h-350v-794q6 -152 -66 -231t-238 -93q-174 6 -244 84t-66 240v794h-350v-788zM177 596v731h240v-735q-9 -178 73 -277t288 -101q196 12 279 109t81 269v732h246v-726q-11 -162 -51.5 -237.5t-105 -130.5t-183 -95.5t-258.5 -46.5 q-118 4 -238.5 35t-201.5 95t-123.5 132t-45.5 246zM279 1796h462l176 -318zM476 1742l320 -150l-98 150h-222zM578 1720l153 -70l-47 70h-106z" />
<glyph unicode="&#xfa;" horiz-adv-x="1494" d="M60 596v848h470v-854q-6 -146 56 -203t194 -61q106 2 177 62t67 202v854h470v-847q-3 -180 -59.5 -287.5t-142.5 -179.5q-178 -148 -508 -156q-133 3 -270.5 36.5t-240 105.5t-158 185t-55.5 295zM120 596q10 -178 55 -267t136 -157t219 -101t254 -37q150 6 274 45 t199 104t124 154t53 260v787h-350v-794q6 -152 -66 -231t-238 -93q-174 6 -244 84t-66 240v794h-350v-788zM177 596v731h240v-735q-9 -178 73 -277t288 -101q196 12 279 109t81 269v732h246v-726q-11 -162 -51.5 -237.5t-105 -130.5t-183 -95.5t-258.5 -46.5 q-118 4 -238.5 35t-201.5 95t-123.5 132t-45.5 246zM709 1478l176 318h462zM836 1592l310 150h-216zM905 1652l47 70h106z" />
<glyph unicode="&#xfb;" horiz-adv-x="1494" d="M60 596v848h470v-854q-6 -146 56 -203t194 -61q106 2 177 62t67 202v854h470v-847q-3 -180 -59.5 -287.5t-142.5 -179.5q-178 -148 -508 -156q-133 3 -270.5 36.5t-240 105.5t-158 185t-55.5 295zM120 596q10 -178 55 -267t136 -157t219 -101t254 -37q150 6 274 45 t199 104t124 154t53 260v787h-350v-794q6 -152 -66 -231t-238 -93q-174 6 -244 84t-66 240v794h-350v-788zM177 596v731h240v-735q-9 -178 73 -277t288 -101q196 12 279 109t81 269v732h246v-726q-11 -162 -51.5 -237.5t-105 -130.5t-183 -95.5t-258.5 -46.5 q-118 4 -238.5 35t-201.5 95t-123.5 132t-45.5 246zM489 1476v62l287 300l290 -300v-66l-287 185zM586 1576l190 137l196 -127l-196 183z" />
<glyph unicode="&#xfc;" horiz-adv-x="1494" d="M60 596v848h470v-854q-6 -146 56 -203t194 -61q106 2 177 62t67 202v854h470v-847q-3 -180 -59.5 -287.5t-142.5 -179.5q-178 -148 -508 -156q-133 3 -270.5 36.5t-240 105.5t-158 185t-55.5 295zM120 596q10 -178 55 -267t136 -157t219 -101t254 -37q150 6 274 45 t199 104t124 154t53 260v787h-350v-794q6 -152 -66 -231t-238 -93q-174 6 -244 84t-66 240v794h-350v-788zM177 596v731h240v-735q-9 -178 73 -277t288 -101q196 12 279 109t81 269v732h246v-726q-11 -162 -51.5 -237.5t-105 -130.5t-183 -95.5t-258.5 -46.5 q-118 4 -238.5 35t-201.5 95t-123.5 132t-45.5 246zM427 1643q0 53 33 87t85.5 34t85 -33.5t32.5 -83.5q-5 -61 -38.5 -92t-82.5 -31t-82 33t-33 86zM479 1639q0 -30 18.5 -48.5t45.5 -18.5q64 0 70 69q0 28 -18.5 46.5t-48.5 18.5t-48.5 -18.5t-18.5 -48.5zM509 1638 q0 40 39 40q17 0 28 -10.5t11 -26.5q-4 -41 -41 -41q-16 0 -26.5 11t-10.5 27zM903 1639q0 53 33 87t85.5 34t85 -33.5t32.5 -83.5q-5 -61 -38.5 -92t-82.5 -31t-82 33t-33 86zM955 1635q0 -30 18.5 -48.5t45.5 -18.5q64 0 70 69q0 28 -18.5 46.5t-48.5 18.5t-48.5 -18.5 t-18.5 -48.5zM985 1632q0 40 39 40q17 0 28 -10.5t11 -26.5q-4 -41 -41 -41q-16 0 -26.5 11t-10.5 27z" />
<glyph unicode="&#xfd;" horiz-adv-x="1614" d="M0 1444h570l294 -446l298 446h570l-630 -914v-530h-472v530zM116 1384l576 -836v-488h352v488l578 836h-420l-303 -446h-65l-296 446h-422zM226 1330h276l304 -442h120l302 444h286l-528 -760v-448h-226v444zM793 1478l176 318h462zM912 1592l310 150h-216zM979 1652 l47 70h106z" />
<glyph unicode="&#xfe;" horiz-adv-x="1394" d="M60 0v1444h470v-253q400 1 509 -27t184 -79q168 -114 168 -356q-16 -245 -172 -353q-158 -109 -449 -105l-240 1v-272h-470zM120 60h350v272h302q408 -5 515 211q35 71 45 187q-10 122 -45 193t-98 115t-167 71t-552 19v256h-350v-1324zM180 120v1204h233l-1 -248h56 q436 0 534 -24t150 -58t86.5 -92t40.5 -174q-7 -108 -34.5 -165t-78.5 -96q-112 -87 -394 -87h-356v-260h-236zM412 474h333q189 0 289 92q48 44 55.5 148t-52 157.5t-127 72t-170.5 18.5h-328v-488zM465 522v388h276q87 0 144 -15t106.5 -58t43.5 -125.5t-47 -117.5 q-84 -72 -243 -72h-280zM518 590l223 -1q131 0 199 51q30 22 39 79q-3 53 -33 77q-66 53 -207 53h-221v-259z" />
<glyph unicode="&#xff;" horiz-adv-x="1614" d="M0 1444h570l294 -446l298 446h570l-630 -914v-530h-472v530zM116 1384l576 -836v-488h352v488l578 836h-420l-303 -446h-65l-296 446h-422zM226 1330h276l304 -442h120l302 444h286l-528 -760v-448h-226v444zM531 1643q0 53 33 87t85.5 34t85 -33.5t32.5 -83.5 q-5 -61 -38.5 -92t-82.5 -31t-82 33t-33 86zM583 1639q0 -30 18.5 -48.5t45.5 -18.5q64 0 70 69q0 28 -18.5 46.5t-48.5 18.5t-48.5 -18.5t-18.5 -48.5zM613 1638q0 40 39 40q17 0 28 -10.5t11 -26.5q-4 -41 -41 -41q-16 0 -26.5 11t-10.5 27zM995 1647q0 53 33 87t85.5 34 t85 -33.5t32.5 -83.5q-5 -61 -38.5 -92t-82.5 -31t-82 33t-33 86zM1047 1643q0 -30 18.5 -48.5t45.5 -18.5q64 0 70 69q0 28 -18.5 46.5t-48.5 18.5t-48.5 -18.5t-18.5 -48.5zM1077 1642q0 40 39 40q17 0 28 -10.5t11 -26.5q-4 -41 -41 -41q-16 0 -26.5 11t-10.5 27z" />
<glyph unicode="&#x152;" horiz-adv-x="2062" d="M24 716q-14 326 216 534q206 186 592 194h1168v-430h-768v-166h496v-252h-496v-166h830v-60h-890v284h496v134h-496v286h768v310h-1108q-377 -4 -550 -175q-90 -89 -148.5 -205.5t-49.5 -287.5q0 -224 82 -357t255 -218t335 -81h1306v-60h-1306q-176 -8 -360 86t-280 244 t-92 386zM144 714q-3 150 43.5 257t129.5 193q150 156 527 160h1034v-190h-758v-386h484v-54h-486v-384h944v-190h-1144q-522 -4 -691 262q-75 118 -83 332zM426 708q0 -175 81 -307t319 -132l112 1v880h-82q-430 -1 -430 -442zM486 712q0 380 402 384v-766 q-264 3 -333 116.5t-69 265.5zM551 709q0 -127 56 -221.5t223 -94.5v631q-279 0 -279 -315z" />
<glyph unicode="&#x153;" horiz-adv-x="2062" d="M24 716q-14 326 216 534q206 186 592 194h1168v-430h-768v-166h496v-252h-496v-166h830v-430h-1306q-176 -8 -360 86t-280 244t-92 386zM84 716q0 -224 82 -357t255 -218t335 -81h1246v310h-830v284h496v134h-496v286h768v310h-1108q-377 -4 -550 -175 q-90 -89 -148.5 -205.5t-49.5 -287.5zM144 714q-3 150 43.5 257t129.5 193q150 156 527 160h1034v-190h-758v-386h484v-54h-486v-384h819v-190h-1019q-522 -4 -691 262q-75 118 -83 332zM426 708q0 -175 81 -307t319 -132l112 1v880h-82q-430 -1 -430 -442zM486 712 q0 380 402 384v-766q-264 3 -333 116.5t-69 265.5zM551 709q0 -127 56 -221.5t223 -94.5v631q-279 0 -279 -315z" />
<glyph unicode="&#x178;" horiz-adv-x="1264" d="M60 1014v60h60l368 -526v-488h352v488l364 526h60v-60h-26l-340 -484v-530h-472v530l-340 484h-26zM60 1134v190h242l304 -444h120l302 444h236v-190h-82l-396 -570v-448h-226v444l-401 574h-99zM60 1384v60h306l294 -446l298 446h306v-60h-266l-303 -446h-65l-296 446 h-274zM315 1639q0 53 33 87t85.5 34t85 -33.5t32.5 -83.5q-5 -61 -38.5 -92t-82.5 -31t-82 33t-33 86zM367 1635q0 -30 18.5 -48.5t45.5 -18.5q64 0 70 69q0 28 -18.5 46.5t-48.5 18.5t-48.5 -18.5t-18.5 -48.5zM397 1634q0 40 39 40q17 0 28 -10.5t11 -26.5q-4 -41 -41 -41 q-16 0 -26.5 11t-10.5 27zM771 1643q0 53 33 87t85.5 34t85 -33.5t32.5 -83.5q-5 -61 -38.5 -92t-82.5 -31t-82 33t-33 86zM823 1639q0 -30 18.5 -48.5t45.5 -18.5q64 0 70 69q0 28 -18.5 46.5t-48.5 18.5t-48.5 -18.5t-18.5 -48.5zM853 1638q0 40 39 40q17 0 28 -10.5 t11 -26.5q-4 -41 -41 -41q-16 0 -26.5 11t-10.5 27z" />
<glyph unicode="&#x2000;" horiz-adv-x="1277" />
<glyph unicode="&#x2001;" horiz-adv-x="2554" />
<glyph unicode="&#x2002;" horiz-adv-x="1277" />
<glyph unicode="&#x2003;" horiz-adv-x="2554" />
<glyph unicode="&#x2004;" horiz-adv-x="851" />
<glyph unicode="&#x2005;" horiz-adv-x="638" />
<glyph unicode="&#x2006;" horiz-adv-x="425" />
<glyph unicode="&#x2007;" horiz-adv-x="425" />
<glyph unicode="&#x2008;" horiz-adv-x="319" />
<glyph unicode="&#x2009;" horiz-adv-x="510" />
<glyph unicode="&#x200a;" horiz-adv-x="141" />
<glyph unicode="&#x2010;" horiz-adv-x="758" d="M92 377v360h574v-360h-574zM152 437h454v240h-454v-240zM198 483v148h367v-148h-367z" />
<glyph unicode="&#x2011;" horiz-adv-x="758" d="M92 377v360h574v-360h-574zM152 437h454v240h-454v-240zM198 483v148h367v-148h-367z" />
<glyph unicode="&#x2012;" horiz-adv-x="758" d="M92 377v360h574v-360h-574zM152 437h454v240h-454v-240zM198 483v148h367v-148h-367z" />
<glyph unicode="&#x2013;" horiz-adv-x="1208" d="M92 377v360h1024v-360h-1024zM199 437h810v240h-810v-240zM281 483v148h655v-148h-655z" />
<glyph unicode="&#x2014;" horiz-adv-x="2232" d="M92 377v360h2048v-360h-2048zM306 437h1620v240h-1620v-240zM470 483v148h1310v-148h-1310z" />
<glyph unicode="&#x2018;" horiz-adv-x="647" d="M170 1128v316h307v-630zM230 1162l187 -191v413h-187v-222zM278 1206v118h92v-216zM474 816z" />
<glyph unicode="&#x2019;" horiz-adv-x="647" d="M169 814v630h307v-316zM229 971l187 191v222h-187v-413zM276 1096l1 228h92l-1 -132z" />
<glyph unicode="&#x201c;" horiz-adv-x="1139" d="M197 1128v316h307v-630zM257 1162l187 -191v413h-187v-222zM304 1194v132h92v-226zM502 816zM635 1128v316h307v-630zM695 1162l187 -191v413h-187v-222zM742 1198v136h92v-236zM940 816z" />
<glyph unicode="&#x201d;" horiz-adv-x="1139" d="M196 814v630h307v-316zM256 971l187 191v222h-187v-413zM300 1102l1 228h92l-1 -132zM634 814v630h307v-316zM694 971l187 191v222h-187v-413zM740 1102l1 228h92l-1 -132z" />
<glyph unicode="&#x202f;" horiz-adv-x="510" />
<glyph unicode="&#x205f;" horiz-adv-x="638" />
<glyph unicode="&#xe000;" horiz-adv-x="1445" d="M0 0v1445h1445v-1445h-1445z" />
</font>
</defs>
</svg>
